<svg width="56" height="72" viewBox="0 0 56 72" fill="none" xmlns="http://www.w3.org/2000/svg">
    <path d="M21.916 14.9616C22.5668 15.6906 23.2007 16.3848 23.8197 17.0937C24.3601 17.7125 24.3863 18.302 23.9151 18.7281C23.4176 19.178 22.8061 19.0752 22.2302 18.4379C21.4447 17.5675 20.6631 16.6933 19.743 15.6686C19.743 16.4876 19.7505 17.1341 19.7411 17.7805C19.7299 18.5316 19.3391 18.987 18.7126 18.9999C18.0619 19.0127 17.6467 18.5426 17.6448 17.7529C17.6392 15.1673 17.6392 12.5816 17.6448 9.9959C17.6467 9.10891 18.0151 8.73978 18.9146 8.72877C19.7056 8.71958 20.5041 8.68653 21.2877 8.76917C22.8304 8.93261 24.0123 10.029 24.2161 11.3897C24.4349 12.8479 23.7299 14.0819 22.2825 14.7761C22.1815 14.8257 22.0824 14.8789 21.916 14.9616ZM19.7842 12.9911C20.5939 12.9434 21.4634 13.2482 21.9627 12.4218C22.1236 12.1537 22.118 11.623 21.9497 11.3604C21.441 10.5634 20.5901 10.8058 19.7842 10.8186C19.7842 11.5348 19.7842 12.2069 19.7842 12.9911Z" fill="black"/>
    <path d="M35.9868 19.004C33.8599 18.9819 31.942 17.6405 31.1948 15.6515C30.4365 13.633 31.0209 11.3955 32.6762 9.96034C34.2612 8.58769 36.5601 8.32273 38.4299 9.29793C38.5317 9.35129 38.6334 9.40649 38.7296 9.46721C39.3528 9.85914 39.547 10.4461 39.2326 10.9742C38.9293 11.4802 38.3449 11.6108 37.7179 11.2649C37.0077 10.8748 36.2771 10.6816 35.4634 10.8417C33.8691 11.1545 32.7687 12.6228 32.9592 14.2108C33.1497 15.8042 34.5608 17.0499 36.1643 16.9027C36.7155 16.8512 37.2888 16.5402 37.7549 16.209C38.3745 15.7692 38.9182 15.6533 39.3565 16.0728C39.8355 16.531 39.7949 17.1253 39.2252 17.7049C38.3393 18.6102 37.2426 19.0058 35.9868 19.004Z" fill="black"/>
    <path d="M10.8523 15.4235C10.8523 16.2455 10.8577 16.9976 10.8505 17.7479C10.8433 18.5423 10.4527 19.0131 9.82356 19.0039C9.19799 18.9947 8.82554 18.5276 8.82374 17.7185C8.82012 15.1495 8.81831 12.5806 8.82374 10.0117C8.82554 9.09404 9.19076 8.71891 10.102 8.71891C10.9572 8.72075 11.8232 8.68213 12.6639 8.8035C14.34 9.04807 15.5351 10.5964 15.4284 12.2533C15.3181 13.9726 13.9512 15.3426 12.2535 15.4198C11.8124 15.4419 11.3658 15.4235 10.8523 15.4235ZM10.8903 13.3584C11.7708 13.3253 12.6639 13.6067 13.2172 12.6983C13.4938 12.2441 13.4667 11.7752 13.1485 11.354C12.55 10.5652 11.7147 10.7987 10.8903 10.8079C10.8903 11.6667 10.8903 12.4758 10.8903 13.3584Z" fill="black"/>
    <path d="M43.4057 10.7962C43.4057 11.5041 43.4057 12.1174 43.4057 12.8123C44.1212 12.8123 44.8012 12.7994 45.4793 12.816C46.3028 12.8364 46.7588 13.2219 46.7529 13.8612C46.749 14.4949 46.293 14.8692 45.4616 14.8878C44.7816 14.9045 44.1015 14.8915 43.3959 14.8915C43.3959 15.5975 43.3959 16.2146 43.3959 16.9187C44.1703 16.9187 44.9211 16.9132 45.6719 16.9206C46.5249 16.928 47.036 17.3227 47.036 17.9602C47.0379 18.5976 46.5269 18.9923 45.6739 18.9979C44.5948 19.0035 43.5178 19.009 42.4387 18.996C41.5798 18.9868 41.169 18.6125 41.1651 17.8082C41.1533 15.1732 41.1533 12.5399 41.1651 9.90486C41.169 9.09877 41.5759 8.73001 42.4387 8.7226C43.5669 8.71148 44.6931 8.71148 45.8213 8.72445C46.5564 8.73372 47.0379 9.15807 47.036 9.75476C47.032 10.3515 46.5564 10.7758 45.8154 10.7943C45.0351 10.8129 44.2529 10.7962 43.4057 10.7962Z" fill="black"/>
    <path d="M55.8367 32.7649C55.8367 30.3472 55.8348 27.9295 55.8329 25.5136C55.8292 18.3929 55.8236 11.0279 55.8572 3.78594C55.8665 1.79511 55.1581 0.633786 53.5625 0.0205049L53.5159 0H2.34324L2.29477 0.0186408C0.69912 0.628194 -0.00922965 1.78951 9.07366e-05 3.78408C0.0336441 11.0242 0.0280519 18.3873 0.0243237 25.508C0.0224597 27.6517 0.0224597 29.7954 0.0224597 31.9391C0.0205956 32.0155 0.0205956 32.0938 0.0205956 32.1702L0.0224597 32.2896V46.052C0.0224597 53.5643 0.0224597 61.0784 0.0224597 68.5906C0.0224597 70.82 1.20242 72 3.43186 72C7.52164 72 11.6096 72 15.6994 72C17.7312 72 19.763 72 21.7949 72H52.3975C54.6791 72 55.8348 70.8387 55.8348 68.5459C55.8348 59.1845 55.8348 49.8231 55.8348 40.4617V32.7668C55.8367 32.7668 55.8367 32.7649 55.8367 32.7649ZM53.0834 69.2468C52.9921 69.34 52.6361 69.3474 52.2483 69.3474H3.63131C3.2324 69.3474 2.86518 69.34 2.77197 69.2486C2.68063 69.1591 2.67318 68.8031 2.67318 68.4154V32.5319C2.67318 32.4704 2.67318 32.4089 2.67504 32.3455C2.67691 32.2355 2.67691 32.1218 2.67318 32.0062V3.56039C2.67318 3.20062 2.68063 2.84085 2.77197 2.74765C2.86331 2.65631 3.22122 2.64885 3.57912 2.64885H52.2688C53.1822 2.64885 53.1822 2.64885 53.1822 3.55852V32.8562V68.3893C53.1841 68.7882 53.1766 69.1517 53.0834 69.2468Z" fill="black"/>
    <path d="M8.33845 25.2341C8.66093 25.3496 9.01697 25.3664 9.32081 25.3664C15.7463 25.3683 22.3675 25.3701 29.5125 25.3701C34.8531 25.3701 40.4863 25.3701 46.5464 25.3683C46.8056 25.3683 47.1001 25.3683 47.3816 25.2862C48.0526 25.0924 48.3919 24.5779 48.3136 23.877C48.2428 23.2283 47.8215 22.8126 47.1597 22.7362C46.964 22.7138 46.772 22.7157 46.5856 22.7175L46.4309 22.7194C41.2991 22.7194 36.1673 22.7175 31.0373 22.7194H24.5876C19.5304 22.7194 14.4731 22.7194 9.41588 22.7194C9.35064 22.7194 9.27981 22.7138 9.21083 22.7064C8.97782 22.6859 8.71313 22.6635 8.50435 22.8089C8.0085 23.1537 7.70839 23.4893 7.58349 23.8323C7.48843 24.0932 7.49961 24.3617 7.61518 24.6077C7.74567 24.8929 8.00291 25.1148 8.33845 25.2341Z" fill="black"/>
    <path d="M47.2408 28.8895C47.0209 28.8522 46.8028 28.8559 46.5921 28.8578C46.5381 28.8578 46.484 28.8596 46.4281 28.8596C43.138 28.8596 39.8479 28.8596 36.5578 28.8596H32.1586C28.8498 28.8596 25.5411 28.8596 22.2305 28.8596C22.1802 28.8615 22.1261 28.8596 22.0739 28.8578C21.8614 28.8559 21.6396 28.8522 21.4178 28.8913C20.8082 28.9994 20.4223 29.4151 20.3571 30.034C20.29 30.6808 20.5827 31.1711 21.1587 31.378C21.4718 31.4898 21.8148 31.5048 22.141 31.5066C26.2084 31.5085 30.4008 31.5104 34.6863 31.5104C38.571 31.5104 42.534 31.5085 46.5474 31.5066C46.8438 31.5066 47.1588 31.4973 47.4571 31.4004C48.0759 31.1972 48.3872 30.6939 48.3145 30.0172C48.2474 29.4039 47.856 28.992 47.2408 28.8895Z" fill="black"/>
    <path d="M47.4055 44.6745C48.0374 44.4937 48.3711 44.0016 48.3226 43.3286C48.276 42.6781 47.8734 42.2437 47.2191 42.1393C47.0196 42.1077 46.8239 42.1114 46.6337 42.1132C46.5815 42.1132 46.5312 42.1151 46.479 42.1151C43.243 42.1132 40.0088 42.1151 36.7728 42.1151H31.6503C28.5037 42.1151 25.359 42.1151 22.2125 42.1151L22.0615 42.1132C21.8713 42.1114 21.6756 42.1095 21.4761 42.1375C20.8219 42.2307 20.4136 42.6613 20.3577 43.3156C20.3018 43.9885 20.6299 44.4825 21.2618 44.6708C21.5488 44.7565 21.8415 44.7621 22.1659 44.764C26.2221 44.7658 30.2783 44.7677 34.3346 44.7677C38.3908 44.7677 42.447 44.7677 46.5033 44.764C46.768 44.7621 47.0979 44.7621 47.4055 44.6745Z" fill="black"/>
    <path d="M47.1559 55.3873C46.9621 55.3649 46.7701 55.3668 46.5855 55.3686L46.4271 55.3705C43.0755 55.3705 39.7257 55.3705 36.3741 55.3705H24.8802C24.5913 55.3724 24.3042 55.3705 24.0171 55.3686C23.2473 55.3668 22.4513 55.3631 21.6665 55.3798C20.8929 55.3966 20.3747 55.8869 20.3449 56.6288C20.3169 57.3464 20.7979 57.8982 21.5435 58.0026C21.6703 58.0194 21.7952 58.025 21.9182 58.025C21.9685 58.025 22.0188 58.025 22.0673 58.0231C22.1139 58.0231 22.1605 58.0212 22.209 58.0212C30.2972 58.0212 38.3855 58.0231 46.4755 58.0194H46.4998C46.7738 58.0194 47.087 58.0194 47.3778 57.9373C48.0507 57.7472 48.39 57.2327 48.3098 56.5262C48.239 55.8775 47.8177 55.4619 47.1559 55.3873Z" fill="black"/>
    <path d="M14.8232 41.3807C13.002 41.3415 11.192 41.3415 9.44537 41.3826C8.2971 41.4105 7.56265 42.1692 7.53097 43.3641C7.51419 43.9643 7.51978 44.572 7.52351 45.161C7.52537 45.4239 7.52724 45.6867 7.52724 45.9514L7.5291 46.1881C7.5291 46.3857 7.52724 46.5833 7.52537 46.7809C7.52164 47.4017 7.51605 48.0448 7.53469 48.6786C7.56825 49.8306 8.35116 50.6172 9.48079 50.6358C10.3513 50.6508 11.2312 50.6582 12.1371 50.6582C12.9946 50.6582 13.8744 50.6507 14.7878 50.6377C15.9622 50.6209 16.7619 49.8175 16.7749 48.6394C16.7936 47.0177 16.7936 45.3046 16.7768 43.4051C16.7637 42.1822 16.0162 41.4068 14.8232 41.3807ZM14.0888 47.9385H10.219V44.0519H14.0907V47.9385H14.0888Z" fill="black"/>
    <path d="M9.52073 37.3823C10.3745 37.3934 11.2469 37.399 12.1286 37.399C12.9954 37.399 13.8734 37.3934 14.7551 37.3823C15.9574 37.3673 16.7496 36.5658 16.7739 35.343C16.785 34.739 16.7832 34.1257 16.7794 33.5329C16.7776 33.2757 16.7776 33.0166 16.7776 32.7593C16.7776 32.4853 16.7794 32.2113 16.7794 31.9373C16.7832 31.337 16.785 30.7163 16.772 30.1049C16.7459 28.9417 16.0189 28.17 14.9172 28.1402C13.1203 28.0898 11.2618 28.0898 9.3977 28.1364C8.27925 28.1644 7.54667 28.9305 7.52989 30.0881C7.50566 31.8422 7.50566 33.6261 7.52989 35.3933C7.54667 36.5658 8.34636 37.3673 9.52073 37.3823ZM10.2272 30.8393H14.0952V34.6961H10.2272V30.8393Z" fill="black"/>
    <path d="M14.7883 54.6231C12.9988 54.5802 11.213 54.5821 9.47752 54.6268C8.28451 54.6585 7.55565 55.4134 7.52583 56.6493C7.51278 57.2384 7.51464 57.8349 7.51837 58.4127C7.52024 58.6868 7.5221 58.9608 7.52023 59.2348C7.51837 60.0475 7.51837 60.8621 7.52023 61.6749V61.6954C7.52023 61.7383 7.52024 61.7811 7.5221 61.824C7.56497 63.1065 8.33484 63.8819 9.58004 63.895C10.4711 63.9062 11.3304 63.9099 12.1692 63.9099C13.0454 63.9099 13.901 63.9043 14.7454 63.8931C15.9645 63.8763 16.7605 63.0767 16.7717 61.8576C16.7884 60.2824 16.7884 58.5936 16.7735 56.6941C16.7623 55.4451 16.0018 54.651 14.7883 54.6231ZM14.093 61.1995H10.2082V57.3148H14.0948V61.1995H14.093Z" fill="black"/>
    <path d="M34.1635 60.5172C32.7338 60.5079 31.2798 60.5098 29.8743 60.5117C29.2573 60.5117 28.6403 60.5135 28.0233 60.5135C27.4883 60.5135 26.9533 60.5135 26.4183 60.5135C25.9709 60.5135 25.5217 60.5135 25.0743 60.5117C23.9819 60.5098 22.8542 60.5079 21.7432 60.521C20.9118 60.5303 20.3768 61.0094 20.3451 61.7699C20.3134 62.5528 20.8316 63.0841 21.6966 63.1568C21.7954 63.1642 21.8942 63.168 21.9911 63.168C22.0414 63.168 22.0899 63.168 22.1384 63.1661L22.2782 63.1642H29.6003H30.7914C31.8819 63.1642 32.9742 63.1642 34.0647 63.1642C34.0666 63.1642 34.0666 63.1642 34.0685 63.1642C34.5457 63.1642 35.2167 63.0804 35.5374 62.3627C35.7219 61.947 35.6995 61.5071 35.4721 61.1566C35.2149 60.7521 34.7377 60.521 34.1635 60.5172Z" fill="black"/>
    <path d="M34.2385 34.0175C32.777 34.0063 31.2932 34.0082 29.856 34.0101C29.2465 34.0101 28.6369 34.0119 28.0292 34.0119L26.3516 34.0101C24.8417 34.0082 23.3299 34.0082 21.82 34.0138C20.9327 34.0175 20.3828 34.4836 20.3492 35.259C20.3325 35.6449 20.4499 35.9823 20.6885 36.2339C20.9495 36.5061 21.3297 36.6515 21.7883 36.6533C23.8071 36.6608 25.8333 36.6627 27.8018 36.6627C30.0443 36.6627 32.2122 36.6589 34.2049 36.6552C34.9207 36.6533 35.4147 36.3103 35.5937 35.6896C35.713 35.2721 35.6496 34.8676 35.4128 34.5525C35.1593 34.217 34.7306 34.0213 34.2385 34.0175Z" fill="black"/>
    <path d="M34.1461 47.2543C32.5635 47.258 30.9809 47.2562 29.3983 47.2562H28.0096C26.591 47.2562 25.1724 47.2543 23.7557 47.2562C23.5637 47.2562 23.3699 47.2543 23.176 47.2543C22.6764 47.2506 22.1619 47.2487 21.6512 47.2692C20.8795 47.3009 20.3668 47.7986 20.3482 48.5349C20.3296 49.2638 20.7937 49.782 21.5617 49.8882C21.7183 49.9106 21.8693 49.9106 22.0165 49.9087H22.0874C23.8061 49.9087 25.5229 49.9087 27.2416 49.9087C29.4524 49.9087 31.6631 49.9088 33.8739 49.9069C34.0939 49.9069 34.3679 49.9069 34.6289 49.8435C35.0129 49.7522 35.3223 49.5229 35.4994 49.1967C35.6746 48.8742 35.7007 48.4976 35.5721 48.1341C35.2627 47.2524 34.422 47.2524 34.1461 47.2543Z" fill="black"/>
    <path d="M26.4601 13.8507C26.4601 12.5676 26.4522 11.2826 26.462 9.99947C26.4698 9.1913 26.8831 8.71818 27.5471 8.7145C28.2131 8.71082 28.6499 9.18946 28.6538 9.98842C28.6636 12.5786 28.6656 15.1688 28.6538 17.7608C28.6499 18.5672 28.2131 19.0219 27.5256 19.0035C26.8675 18.9869 26.4738 18.5506 26.4659 17.7719C26.4503 16.4648 26.4601 15.1577 26.4601 13.8507Z" fill="black"/>
</svg>
