<svg width="72" height="72" viewBox="0 0 72 72" fill="none" xmlns="http://www.w3.org/2000/svg">
    <path d="M57.259 21.3185C39.2157 21.3185 21.2932 21.3185 3.29898 21.3185C3.29898 21.6359 3.29898 21.9104 3.29898 22.1868C3.29898 33.1508 3.35427 44.1148 3.26621 55.0768C3.23959 58.4967 5.73793 60.608 8.74822 60.5691C16.4869 60.4708 24.2277 60.5363 31.9684 60.5363C32.249 60.5363 32.5336 60.5199 32.8101 60.5568C33.6476 60.6694 34.2456 61.3718 34.2313 62.1971C34.2169 63.0346 33.6087 63.6879 32.7568 63.7759C32.5787 63.7944 32.4005 63.7944 32.2203 63.7944C24.3014 63.7944 16.3825 63.8067 8.46357 63.7903C4.29012 63.7821 1.05661 61.2367 0.204722 57.3048C0.0552308 56.6127 0.0101788 55.8857 0.0101788 55.1731C-0.0021081 41.2971 -0.0021081 27.421 0.00403535 13.545C0.00608317 9.26303 2.51466 5.99266 6.48743 5.1162C7.17959 4.96466 7.90452 4.93804 8.61716 4.91141C9.53253 4.87865 10.4479 4.90322 11.4227 4.90322C11.5496 3.26087 12.1722 1.91136 13.491 0.948886C14.4104 0.277202 15.4528 -0.0484015 16.5832 0.0171287C19.1819 0.166619 20.9491 1.97075 21.3034 4.84179C27.2544 4.84179 33.2156 4.84179 39.1706 4.84179C40.0716 1.47108 41.7038 -0.0750231 44.2615 0.00279395C46.854 0.0847067 48.5332 1.74139 49.1394 4.90322C50.1305 4.90322 51.1422 4.89094 52.1558 4.90527C55.9238 4.96261 58.9669 7.10258 60.0768 10.5429C60.3307 11.3334 60.4904 12.1894 60.4966 13.0187C60.5314 19.1519 60.5191 25.2852 60.515 31.4184C60.515 32.3911 59.9969 33.0648 59.1798 33.2184C58.4631 33.3536 57.6911 32.9809 57.4249 32.2928C57.2918 31.9488 57.2672 31.5474 57.2672 31.1706C57.2549 28.1808 57.261 25.191 57.261 22.2011C57.259 21.9226 57.259 21.6482 57.259 21.3185ZM39.1808 8.25345C33.1807 8.25345 27.24 8.25345 21.3075 8.25345C20.9184 11.1736 19.1307 12.9819 16.5217 13.0904C15.3647 13.1375 14.3039 12.7894 13.3804 12.0747C12.1353 11.1122 11.5435 9.8016 11.4247 8.21455C10.2308 8.21455 9.08406 8.18178 7.94138 8.22069C5.81984 8.29441 3.85598 9.70536 3.52219 11.7921C3.19863 13.8051 3.30307 15.8857 3.21911 17.9683C21.3239 17.9683 39.2423 17.9683 57.0972 17.9683C57.0972 15.9143 57.2324 13.8972 57.0501 11.9068C56.9252 10.5409 55.9627 9.51286 54.7422 8.82479C52.9299 7.80089 50.9804 8.32718 49.0943 8.20431C48.7278 11.1614 46.9626 12.9368 44.3536 13.0924C41.7631 13.2501 39.9754 11.5853 39.1808 8.25345ZM18.0044 6.6111C18.0023 6.6111 18.0023 6.6111 18.0003 6.6111C18.0003 6.02543 18.0412 5.43361 17.9921 4.85203C17.9102 3.8916 17.2323 3.28749 16.3313 3.30388C15.4671 3.32026 14.7934 3.91822 14.7463 4.84793C14.6889 5.96809 14.691 7.09439 14.7401 8.21455C14.7831 9.18112 15.4671 9.79956 16.3641 9.8016C17.259 9.8016 17.9204 9.18521 17.9982 8.22069C18.0392 7.68621 18.0044 7.14763 18.0044 6.6111ZM42.5495 6.54353C42.5475 6.54353 42.5475 6.54353 42.5454 6.54353C42.5454 7.08005 42.5454 7.61453 42.5454 8.15106C42.5454 8.20226 42.5495 8.25345 42.5536 8.30465C42.6355 9.17497 43.2499 9.77089 44.0977 9.79956C44.968 9.82823 45.7277 9.23436 45.7707 8.35789C45.8301 7.16197 45.8281 5.9599 45.7728 4.76192C45.7318 3.88136 44.9844 3.2834 44.114 3.30388C43.2355 3.3264 42.6028 3.9387 42.5536 4.85817C42.5249 5.41927 42.5495 5.98242 42.5495 6.54353Z" fill="black"/>
    <path d="M71.9705 54.057C71.95 63.9131 63.8386 72.0061 53.9866 71.9999C44.0301 71.9918 35.9719 63.9008 35.9883 53.93C36.0047 44.0206 44.1181 35.9583 54.0337 35.9993C63.9472 36.0382 71.991 44.1373 71.9705 54.057ZM68.6735 54.0693C68.692 45.9456 62.1635 39.3004 54.1279 39.2615C45.8916 39.2205 39.2607 45.8186 39.2505 54.0631C39.2423 62.0987 45.8363 68.6559 53.9682 68.6989C62.0304 68.7398 68.6572 62.1458 68.6735 54.0693Z" fill="black"/>
    <path d="M30.2658 26.1841C31.0829 26.1841 31.8979 26.1719 32.715 26.1882C34.5642 26.2251 35.9526 27.5951 35.9833 29.4402C36.01 31.0477 36.0018 32.6552 35.9874 34.2628C35.9711 36.1795 34.6707 37.5659 32.7539 37.6314C31.0973 37.6888 29.4385 37.6867 27.7818 37.6314C25.8978 37.568 24.5913 36.2266 24.5442 34.3385C24.5033 32.7064 24.4971 31.0723 24.5483 29.4402C24.6077 27.5234 25.992 26.2128 27.8986 26.1862C28.6849 26.1739 29.4754 26.1821 30.2658 26.1841ZM27.8617 34.2976C29.5184 34.2976 31.0829 34.2976 32.6638 34.2976C32.6638 32.6634 32.6638 31.0784 32.6638 29.4914C31.0297 29.4914 29.4631 29.4914 27.8617 29.4914C27.8617 31.1112 27.8617 32.6798 27.8617 34.2976Z" fill="black"/>
    <path d="M8.21002 31.875C8.21002 31.0313 8.18545 30.1876 8.21412 29.3459C8.27555 27.5971 9.60664 26.2353 11.3391 26.1943C13.049 26.1554 14.763 26.1554 16.473 26.1943C18.2075 26.2312 19.5611 27.5869 19.6061 29.3336C19.6491 30.9944 19.6389 32.6552 19.6164 34.316C19.5898 36.2123 18.3058 37.5618 16.4095 37.6273C14.7508 37.6847 13.0879 37.6847 11.4292 37.6294C9.53292 37.5659 8.24893 36.2143 8.20798 34.3283C8.18955 33.5112 8.20593 32.6921 8.20593 31.875C8.20593 31.875 8.20798 31.875 8.21002 31.875ZM11.4824 34.2873C13.1432 34.2873 14.7323 34.2873 16.3173 34.2873C16.3173 32.6552 16.3173 31.0845 16.3173 29.5036C14.6791 29.5036 13.0879 29.5036 11.4824 29.5036C11.4824 31.1193 11.4824 32.6716 11.4824 34.2873Z" fill="black"/>
    <path d="M13.9022 53.969C13.0339 53.969 12.1636 53.9976 11.2974 53.9628C9.5813 53.8932 8.26046 52.5826 8.2195 50.8604C8.1765 49.1238 8.1765 47.3852 8.22155 45.6487C8.26455 43.9346 9.59768 42.6117 11.3179 42.5687C13.0544 42.5257 14.7909 42.5257 16.5275 42.5708C18.2415 42.6158 19.5624 43.9449 19.6054 45.6671C19.6484 47.4036 19.6504 49.1422 19.6033 50.8788C19.5583 52.5949 18.2272 53.8952 16.507 53.9628C15.6408 53.9976 14.7705 53.971 13.9022 53.969ZM11.494 50.6802C13.1547 50.6802 14.7254 50.6802 16.3186 50.6802C16.3186 49.048 16.3186 47.4589 16.3186 45.8678C14.6804 45.8678 13.0913 45.8678 11.494 45.8678C11.494 47.4937 11.494 49.0665 11.494 50.6802Z" fill="black"/>
    <path d="M27.8623 45.8003C27.8623 47.4897 27.8623 49.0624 27.8623 50.7191C28.8862 50.7191 29.8753 50.715 30.8644 50.7212C32.0316 50.7273 32.7688 51.3642 32.7709 52.3492C32.7729 53.3444 32.0582 53.9649 30.8705 53.9752C29.8753 53.9854 28.878 53.9915 27.8827 53.9731C25.9762 53.9383 24.6185 52.683 24.5468 50.7928C24.4834 49.1095 24.4854 47.4201 24.5468 45.7368C24.6144 43.8753 25.9578 42.5934 27.8049 42.5606C29.4391 42.5319 31.0732 42.5442 32.7074 42.5627C33.0576 42.5668 33.4241 42.6241 33.7538 42.7408C34.5832 43.0357 34.9948 43.8118 34.8044 44.6228C34.6037 45.4788 33.8747 45.9723 32.9716 45.8678C32.7197 45.8392 32.4658 45.8023 32.2118 45.8023C30.7865 45.7982 29.3592 45.8003 27.8623 45.8003Z" fill="black"/>
    <path d="M49.0634 29.4852C47.3964 29.4852 45.8278 29.4852 44.1527 29.4852C44.1527 30.8716 44.1527 32.215 44.1527 33.5604C44.1507 35.0164 43.5998 35.7884 42.5472 35.8028C41.4701 35.8171 40.8946 35.0266 40.8946 33.5235C40.8946 32.1945 40.8844 30.8675 40.8967 29.5385C40.9172 27.5931 42.2912 26.2067 44.2285 26.1862C45.8114 26.1698 47.3944 26.1719 48.9774 26.1862C50.8327 26.2026 52.1802 27.4415 52.3296 29.2846C52.3829 29.944 52.3747 30.6136 52.3399 31.275C52.2846 32.2928 51.6231 32.9399 50.6996 32.9379C49.7822 32.9358 49.1228 32.2785 49.0675 31.2668C49.0368 30.6873 49.0634 30.1057 49.0634 29.4852Z" fill="black"/>
    <path d="M52.3516 49.9019C52.3516 48.5995 52.3414 47.2991 52.3557 45.9967C52.368 44.8971 53.0397 44.1639 53.9899 44.1742C54.9421 44.1844 55.6015 44.9216 55.6076 46.0234C55.6179 48.2432 55.5913 50.4651 55.6302 52.6849C55.6363 53.0412 55.8247 53.4651 56.0664 53.7334C56.7626 54.5116 57.5428 55.216 58.2657 55.9696C59.0193 56.758 59.0377 57.7553 58.3456 58.4168C57.6718 59.0598 56.7176 59.0209 55.9558 58.2795C54.9319 57.2823 53.8936 56.2952 52.9434 55.2324C52.6199 54.8699 52.4069 54.2965 52.3782 53.8051C52.3025 52.5088 52.3516 51.2043 52.3516 49.9019Z" fill="black"/>
</svg>
