<svg width="104" height="72" viewBox="0 0 104 72" fill="none" xmlns="http://www.w3.org/2000/svg">
    <path d="M24.8289 61.1381C24.8289 62.7191 24.837 64.232 24.8273 65.7433C24.8046 68.8599 22.6766 70.9815 19.5597 70.9913C17.2585 70.9994 14.9557 71.0042 12.6545 70.9896C9.68002 70.9718 7.51797 68.8193 7.51474 65.8277C7.50503 57.0734 7.49855 48.3208 7.53739 39.5665C7.54549 37.677 7.74454 35.7891 7.85944 33.8461C7.16842 33.7633 6.41915 33.7292 5.69415 33.5783C1.87011 32.7845 -0.659291 28.8789 0.151477 25.0594C0.510739 23.3695 1.91866 22.2008 3.69879 22.1846C6.3091 22.1602 8.92104 22.1537 11.5314 22.1927C12.1803 22.2024 12.4781 21.9963 12.7386 21.3957C14.475 17.3878 16.3118 13.4254 18.0126 9.40297C19.8251 5.11755 23.1653 2.74109 27.4635 1.49604C31.396 0.356511 35.4611 0.150356 39.5037 0.0919184C47.846 -0.0298265 56.1948 -0.0314498 64.5371 0.0919184C68.578 0.151979 72.6432 0.350017 76.5789 1.47819C81.0017 2.74758 84.3629 5.23442 86.1916 9.63834C87.8277 13.5748 89.6402 17.4381 91.3313 21.3518C91.6064 21.9881 91.9171 22.2089 92.6114 22.1959C95.1181 22.1488 97.6265 22.1699 100.135 22.1797C102.528 22.1894 103.982 23.6487 104.001 26.0431C104.04 30.6418 101.266 33.5815 96.7121 33.7698C96.5455 33.7763 96.3804 33.7974 96.1182 33.8217C96.2056 34.7486 96.3545 35.6268 96.361 36.5066C96.4306 46.3274 96.5131 56.1481 96.5131 65.9689C96.5131 68.9167 94.2782 70.9783 91.3378 70.9929C89.0366 71.0043 86.7337 71.0059 84.4325 70.9929C81.4532 70.9767 79.2928 68.8275 79.2636 65.8553C79.2475 64.3083 79.2604 62.7613 79.2604 61.1413C61.1241 61.1381 43.0429 61.1381 24.8289 61.1381ZM22.8951 8.26506C22.7575 8.22772 22.6183 8.18877 22.4808 8.15143C22.0891 8.81859 21.6279 9.45329 21.3156 10.1562C18.27 17.008 15.1855 23.8435 12.2661 30.7489C11.5572 32.4257 11.1252 34.3315 11.062 36.1495C10.8565 42.141 10.8517 48.1389 10.8242 54.1337C10.8128 56.8299 11.821 57.7552 14.5333 57.7552C39.5117 57.7552 64.4918 57.7552 89.4703 57.7552C89.8133 57.7552 90.158 57.7649 90.5011 57.7454C91.854 57.6659 92.757 56.9208 93.0451 55.6011C93.1616 55.0654 93.236 54.5086 93.236 53.9616C93.2328 49.0674 93.2458 44.1717 93.1794 39.2775C93.1406 36.4514 93.0402 33.5929 91.8945 30.9534C88.8262 23.8857 85.6915 16.8489 82.5601 9.80878C82.2947 9.21305 81.8626 8.69198 81.4338 8.01995C80.6246 10.2211 80.9726 12.2469 81.2007 14.2582C81.4079 16.0827 80.8431 17.6329 79.2895 18.5176C77.7004 19.4234 75.9801 20.2058 74.2226 20.6879C70.028 21.8372 65.6942 22.1164 61.3669 22.2641C52.23 22.5741 43.0914 22.7154 33.9966 21.5288C31.1014 21.1505 28.2225 20.6197 25.6284 19.1572C23.2883 17.8391 22.6523 16.357 22.8708 13.69C23.0148 11.8931 22.8951 10.0734 22.8951 8.26506ZM78.6519 5.88211C78.113 5.63212 77.6551 5.40649 77.1857 5.20683C74.2841 3.97315 71.1883 3.6907 68.1071 3.59817C60.5901 3.37416 53.0682 3.14528 45.5496 3.21833C40.5475 3.26702 35.5453 3.77673 30.5528 4.19553C28.7549 4.3465 27.033 4.96496 25.4536 5.91295C26.5508 8.67575 26.5378 11.458 26.1608 14.2435C26.0378 15.1574 26.2886 15.7905 27.0395 16.1119C28.3876 16.6866 29.7566 17.2872 31.1791 17.6037C36.6037 18.813 42.135 19.0176 47.6664 19.0906C55.3954 19.1929 63.1324 19.2789 70.7902 18.0063C72.8309 17.667 74.8198 16.9447 76.7893 16.271C77.6842 15.9642 78.079 15.2743 77.9172 14.1445C77.524 11.3996 77.5418 8.6449 78.6519 5.88211ZM21.5227 61.1445C17.8767 60.789 14.3245 61.5682 10.8161 60.5326C10.8161 62.3636 10.7821 64.1833 10.829 66.0014C10.8549 66.9786 11.588 67.6652 12.5703 67.6766C14.9686 67.7025 17.3669 67.7009 19.7653 67.6717C20.7557 67.6587 21.4774 66.9786 21.5082 65.9997C21.5583 64.3943 21.5227 62.7857 21.5227 61.1445ZM93.2797 60.5407C89.7389 61.5844 86.1479 60.755 82.5828 61.1608C82.5828 62.7662 82.5504 64.3115 82.5941 65.8553C82.6248 66.9737 83.324 67.6652 84.4163 67.6766C86.7823 67.7025 89.1498 67.7025 91.5158 67.6782C92.511 67.6668 93.2409 66.9932 93.2668 66.016C93.3137 64.1979 93.2797 62.3782 93.2797 60.5407ZM93.2263 25.4879C93.9109 27.129 94.521 28.6111 95.1553 30.0817C95.2217 30.236 95.4207 30.3934 95.5874 30.434C98.3337 31.1223 100.853 29.0331 100.708 26.2297C100.682 25.7379 100.582 25.4733 100.015 25.4782C97.7948 25.5009 95.5745 25.4879 93.2263 25.4879ZM3.48841 25.5317C3.045 28.8188 5.28634 31.0021 8.40804 30.4389C8.58443 30.4064 8.82718 30.2928 8.88867 30.1515C9.54247 28.6305 10.1655 27.0966 10.8096 25.5317C8.32065 25.5317 5.93528 25.5317 3.48841 25.5317Z" fill="black"/>
    <path d="M65.2346 46.1715C65.2346 47.3532 65.2524 48.384 65.2297 49.4148C65.2087 50.3741 64.6925 51.0916 63.7555 51.0965C59.9816 51.1127 56.177 51.3026 52.4371 50.9131C47.1776 50.3644 43.2289 46.2657 42.3324 41.0501C42.2984 40.8521 42.2305 40.6589 42.1625 40.4057C40.5668 40.4057 38.9874 40.3131 37.4241 40.4316C35.8916 40.5469 34.8073 41.8926 34.7232 43.4753C34.6762 44.3664 34.7021 45.2771 34.5193 46.1423C33.9237 48.9587 31.438 51.0462 28.5672 51.116C25.9924 51.1793 23.4145 51.1484 20.8382 51.1273C19.7766 51.1192 19.0807 50.4472 19.0629 49.5122C19.0435 48.5366 19.7571 47.8451 20.877 47.8337C23.0067 47.8126 25.1428 47.7233 27.2644 47.8516C30.336 48.0366 31.5384 46.1942 31.4639 43.7123C31.3474 39.8521 34.2085 37.0991 38.0763 37.0731C39.4146 37.0634 40.7529 37.0715 42.1593 37.0715C42.2887 36.5115 42.4004 35.9823 42.5315 35.458C43.8471 30.1921 48.4981 26.4294 53.8984 26.332C57.0233 26.2751 60.1499 26.3092 63.2764 26.319C64.6245 26.3238 65.2184 26.9277 65.2346 28.2766C65.2491 29.5103 65.2378 30.7456 65.2378 32.1059C66.4321 32.1059 67.552 32.1059 68.6735 32.1059C70.4261 32.1059 72.1771 32.0994 73.9297 32.1075C75.2114 32.114 75.972 32.7601 75.951 33.7925C75.9299 34.7875 75.1887 35.4076 73.9669 35.4125C71.4246 35.4222 68.8822 35.4157 66.3399 35.4157C66.0065 35.4157 65.6715 35.4157 65.288 35.4157C65.288 37.914 65.288 40.3131 65.288 42.8146C65.6116 42.8308 65.9418 42.8584 66.2703 42.86C68.8466 42.8633 71.423 42.8552 73.9993 42.8665C75.2114 42.8714 75.9493 43.5158 75.9493 44.5174C75.9493 45.5173 75.2065 46.1634 73.9977 46.1683C71.1187 46.178 68.2398 46.1715 65.2346 46.1715ZM61.8912 29.6288C59.2177 29.6288 56.6139 29.5915 54.0133 29.6369C49.529 29.7148 45.802 33.2601 45.4671 37.7078C45.0868 42.7594 47.9738 47.0091 52.628 47.5886C55.6559 47.9652 58.7679 47.66 61.8912 47.66C61.8912 41.74 61.8912 35.7583 61.8912 29.6288Z" fill="black"/>
</svg>
