<svg width="76" height="71" viewBox="0 0 76 71" fill="none" xmlns="http://www.w3.org/2000/svg">
    <path d="M75.8778 49.2102C75.4334 50.9987 75.2096 52.8792 74.5062 54.5588C71.8932 60.8009 67.2036 64.6016 60.514 65.8062C59.2359 66.0361 57.9118 66.0867 56.6076 66.0928C50.3103 66.1204 44.0131 66.1051 37.7143 66.1051C37.4216 66.1051 37.1289 66.1051 36.7841 66.1051C36.7841 65.2821 36.7841 64.5081 36.7841 63.6438C37.0936 63.6438 37.3833 63.6438 37.6745 63.6438C44.1449 63.6438 50.6153 63.6269 57.0857 63.6499C61.4566 63.6652 65.2419 62.2415 68.4618 59.2668C75.0058 53.2225 75.0472 42.3981 68.5415 36.2909C65.3278 33.2733 61.524 31.8296 57.121 31.8373C45.1686 31.8557 33.2148 31.8557 21.2624 31.8373C16.605 31.8296 13.0464 29.8358 10.9484 25.6351C7.4327 18.5945 12.346 10.2605 20.2034 9.81609C20.5482 9.79617 20.8946 9.79157 21.2394 9.79157C32.6492 9.79004 44.0591 9.79004 55.4689 9.79004C55.7126 9.79004 55.9562 9.79004 56.252 9.79004C56.252 10.6145 56.252 11.387 56.252 12.259C55.9241 12.259 55.6099 12.259 55.2972 12.259C43.9365 12.259 32.5772 12.2559 21.2164 12.2605C17.1123 12.262 13.9246 14.4612 12.6893 18.1148C10.8656 23.5109 14.8395 29.212 20.536 29.353C21.8141 29.3852 23.0953 29.3576 24.467 29.3576C24.467 28.5285 24.4838 27.7469 24.4516 26.9668C24.4455 26.8243 24.2631 26.6358 24.116 26.5622C21.6946 25.3531 20.8609 23.2259 20.8318 20.7094C20.8134 19.0941 21.2931 17.58 22.395 16.3447C24.372 14.1302 27.1183 14.1609 29.0692 16.3892C31.2255 18.8535 31.0477 23.327 28.6922 25.6059C28.4455 25.845 28.1849 26.1377 27.8769 26.2297C26.9221 26.5163 26.8531 27.1952 26.9359 28.009C26.9773 28.4212 26.9436 28.8411 26.9436 29.3132C30.211 29.3132 33.4278 29.3132 36.7304 29.3132C36.7304 28.5316 36.7473 27.773 36.7166 27.0159C36.7105 26.8672 36.5511 26.6711 36.4101 26.5898C33.7251 25.0389 32.5098 22.193 33.2454 19.1554C33.5366 17.957 34.0638 16.8903 34.9435 16.0076C36.5649 14.38 39.0461 14.2927 40.7518 15.816C43.4445 18.2191 43.5319 23.1217 40.9189 25.6182C40.6354 25.8895 40.3319 26.2144 39.9794 26.3201C39.1856 26.5607 39.0829 27.0833 39.1457 27.7822C39.1886 28.268 39.1534 28.7615 39.1534 29.3683C39.4905 29.3683 39.7741 29.3683 40.0591 29.3683C45.7387 29.3683 51.4199 29.3607 57.0995 29.3714C60.6765 29.3775 64.0481 30.1806 67.0979 32.1116C72.0449 35.2457 74.9169 39.7253 75.7322 45.5245C75.766 45.7666 75.8288 46.0042 75.8794 46.2432C75.8778 47.2348 75.8778 48.2218 75.8778 49.2102ZM28.1528 20.9593C28.1589 19.7669 27.7895 18.6466 27.1995 17.9478C26.3183 16.9041 25.1106 16.8995 24.2202 17.9386C22.9452 19.4252 22.9528 22.2343 24.2356 23.7117C25.126 24.737 26.3505 24.7217 27.2118 23.6627C27.88 22.8443 28.116 21.8742 28.1528 20.9593ZM40.3794 20.7539C40.3687 19.7715 40.1296 18.7018 39.3342 17.8359C38.5082 16.9363 37.394 16.944 36.5526 17.8283C35.1795 19.2719 35.1657 22.2987 36.5235 23.7699C37.3833 24.7002 38.5051 24.7109 39.3526 23.773C40.0836 22.9638 40.3426 21.9738 40.3794 20.7539Z" fill="black"/>
    <path d="M8.90027 70.9985C7.77232 70.5679 6.65815 70.1112 5.94092 69.0568C5.74782 68.7717 5.47656 68.4928 5.41066 68.1771C5.23748 67.3495 4.71335 67.2637 4.00838 67.302C3.14709 67.351 2.2812 67.325 1.41684 67.3097C0.494247 67.2928 0.0283521 66.8591 0.0160918 65.958C-0.00536392 64.4269 -0.00536392 62.8959 0.0160918 61.3664C0.0283521 60.4546 0.478921 60.0331 1.40305 60.0009C1.72029 59.9902 2.03752 59.9994 2.46357 59.9994C2.46357 59.6469 2.46357 59.3588 2.46357 59.0707C2.46357 55.0953 2.46204 51.1198 2.46357 47.1459C2.46357 45.6256 2.77774 45.3084 4.27351 45.3084C11.2343 45.3069 18.1952 45.3222 25.156 45.2915C26.1399 45.287 26.687 45.6425 27.0732 46.5421C28.405 49.6455 29.7751 52.7321 31.182 55.8018C31.6464 56.8132 31.9437 57.8217 31.844 58.9374C31.8165 59.2531 31.8395 59.5734 31.8395 60.004C32.2548 60.004 32.6165 59.9887 32.9766 60.0071C33.7827 60.0485 34.2333 60.4561 34.2456 61.2469C34.2716 62.8515 34.2716 64.4561 34.2456 66.0606C34.2333 66.8499 33.7812 67.2852 32.9827 67.3051C31.8977 67.3327 30.8096 67.2974 29.7245 67.3311C29.5084 67.3388 29.1682 67.492 29.1054 67.6591C28.4571 69.397 27.2326 70.456 25.4503 70.902C25.4104 70.9127 25.3813 70.9663 25.346 71C24.7529 71 24.1599 71 23.5683 71C23.5147 70.9556 23.4671 70.8851 23.4058 70.8698C21.6725 70.4284 20.5185 69.3541 19.8641 67.6974C19.7936 67.5196 19.4779 67.3373 19.2726 67.3327C17.8412 67.3005 16.4098 67.2974 14.9784 67.3373C14.7699 67.3434 14.5201 67.5932 14.3715 67.7909C13.8918 68.4376 13.5592 69.2376 12.9677 69.7434C12.3194 70.2981 11.4489 70.5924 10.675 70.9985C10.0849 70.9985 9.49184 70.9985 8.90027 70.9985ZM2.50955 64.8898C3.28808 64.8898 4.02371 64.9174 4.75626 64.8683C4.92331 64.8576 5.14093 64.6109 5.22062 64.4239C6.07579 62.4178 7.75546 61.2239 9.77536 61.2163C11.829 61.2071 13.4887 62.3871 14.3929 64.4438C14.4818 64.6446 14.7975 64.8668 15.0136 64.8714C16.445 64.9097 17.8779 64.9066 19.3093 64.8729C19.507 64.8683 19.8028 64.6614 19.8794 64.476C20.7361 62.4239 22.2426 61.2377 24.474 61.2377C26.7008 61.2377 28.2272 62.3979 29.0701 64.4653C29.1391 64.6354 29.3399 64.8622 29.4901 64.8699C30.2456 64.9112 31.0042 64.8882 31.7858 64.8882C31.7858 64.0224 31.7858 63.2499 31.7858 62.4178C31.4655 62.4178 31.1973 62.4208 30.9291 62.4178C29.8073 62.4024 29.3828 61.9749 29.369 60.8316C29.3613 60.1894 29.4272 59.5396 29.3521 58.9067C29.2632 58.165 29.1652 57.3895 28.877 56.7121C27.6924 53.9198 26.4188 51.1658 25.2142 48.3827C24.9905 47.8662 24.7131 47.7206 24.1675 47.7237C18.0189 47.7436 11.8688 47.7375 5.72024 47.7375C5.4597 47.7375 5.2007 47.7375 4.90339 47.7375C4.90339 49.6762 4.90339 51.5014 4.90339 53.3267C4.90339 55.8707 4.91105 58.4148 4.89879 60.9588C4.89419 61.9657 4.45282 62.3933 3.45053 62.4178C3.14096 62.4254 2.83138 62.4193 2.51108 62.4193C2.50955 63.2929 2.50955 64.0484 2.50955 64.8898ZM7.37385 66.0637C7.35546 67.4399 8.40833 68.5204 9.77842 68.528C11.1455 68.5372 12.2382 67.4599 12.2382 66.1036C12.2382 64.784 11.1807 63.7021 9.85658 63.6653C8.50334 63.6285 7.39378 64.6997 7.37385 66.0637ZM24.4526 68.528C25.815 68.5434 26.9215 67.4645 26.9292 66.1143C26.9368 64.7779 25.8165 63.6591 24.4756 63.6653C23.1484 63.6699 22.0787 64.7273 22.0572 66.053C22.0388 67.4323 23.084 68.5127 24.4526 68.528Z" fill="black"/>
    <path d="M36.7647 56.2906C36.7647 55.4615 36.7647 54.7029 36.7647 53.8492C37.0865 53.8492 37.3746 53.8492 37.6627 53.8492C44.1332 53.8492 50.6021 53.8401 57.0725 53.8538C59.6288 53.86 61.6318 52.8945 62.8808 50.6094C64.9452 46.8363 62.4563 42.1253 58.179 41.6839C57.7376 41.6379 57.2916 41.6364 56.8472 41.6364C45.019 41.6333 33.1892 41.6333 21.361 41.6348C15.6308 41.6364 10.5688 39.8387 6.45087 35.8127C1.41185 30.8855 -0.707664 24.8519 0.265504 17.8451C1.08542 11.9387 4.04783 7.26898 8.87842 3.80696C12.4125 1.27519 16.4048 0.0276941 20.7419 0.0169663C32.423 -0.0121521 44.1025 0.00470588 55.7836 0.00623843C55.9277 0.00623843 56.0717 0.0230965 56.2602 0.0353568C56.2602 0.818489 56.2602 1.5725 56.2602 2.42153C55.966 2.43533 55.6579 2.46445 55.3514 2.46445C44.0167 2.46598 32.682 2.47517 21.3472 2.45985C18.2346 2.45525 15.2538 3.0085 12.4952 4.47821C6.99492 7.40998 3.59113 11.9433 2.70379 18.124C1.49307 26.5622 5.7413 34.11 13.4853 37.6318C15.9711 38.7613 18.6086 39.1736 21.3365 39.169C33.2643 39.1506 45.1906 39.1567 57.1184 39.1628C61.0188 39.1644 64.185 41.244 65.4938 44.6294C67.6593 50.234 63.6364 56.2339 57.5736 56.2983C50.7829 56.3703 43.9922 56.3167 37.2014 56.3167C37.0819 56.3167 36.9608 56.3029 36.7647 56.2906Z" fill="black"/>
    <path d="M67.8465 52.2478C68.3844 52.4838 69.0802 52.7903 69.8327 53.1214C68.8871 55.2945 67.4909 57.0477 65.5937 58.4868C65.1063 57.8447 64.6481 57.2408 64.2695 56.7412C65.4573 55.2485 66.6082 53.8018 67.8465 52.2478Z" fill="black"/>
    <path d="M15.4391 35.995C13.6276 34.9314 11.9648 33.9537 10.1641 32.8962C10.8369 32.133 11.3625 31.5384 11.8085 31.0342C13.3211 31.9277 14.7556 32.7752 16.2636 33.6656C16.0429 34.2893 15.7839 35.0188 15.4391 35.995Z" fill="black"/>
    <path d="M7.90199 11.5387C8.59776 12.0414 9.21232 12.4873 9.7533 12.8781C9.03607 14.4046 8.35102 15.8635 7.63073 17.3976C6.98246 17.2352 6.2499 17.0513 5.44531 16.849C5.89282 14.8919 6.74645 13.1831 7.90199 11.5387Z" fill="black"/>
    <path d="M59.7695 36.7751C59.9044 36.113 60.0531 35.3728 60.2155 34.5743C62.2048 34.9713 63.9626 35.7544 65.584 36.9958C65.1013 37.6379 64.6476 38.2433 64.2384 38.7873C62.7488 38.1176 61.3097 37.4693 59.7695 36.7751Z" fill="black"/>
    <path d="M18.1275 4.96558C18.3006 5.98166 18.4248 6.70655 18.5443 7.40233C17.044 7.94025 15.5758 8.46898 14.0141 9.02989C13.6647 8.42913 13.2754 7.75635 12.7773 6.89659C14.5781 6.24679 16.2945 5.62764 18.1275 4.96558Z" fill="black"/>
    <path d="M8.44195 26.481C7.81208 26.7706 7.12703 27.0863 6.37455 27.4327C5.57456 25.753 5.12245 24.0258 4.99219 22.1454C5.82283 22.0734 6.57378 22.009 7.27109 21.9492C7.66495 23.4756 8.04349 24.9408 8.44195 26.481Z" fill="black"/>
    <path d="M67.7695 43.2777C68.4132 42.9957 69.1044 42.6923 69.8385 42.3719C70.6032 44.0761 70.9465 45.8125 70.9787 47.6792C70.1802 47.6792 69.4048 47.6792 68.6676 47.6792C68.3764 46.2508 68.0837 44.8194 67.7695 43.2777Z" fill="black"/>
    <path d="M23.2969 7.29963C23.2969 6.49811 23.2969 5.74103 23.2969 4.94104C24.9122 4.94104 26.4968 4.94104 28.1198 4.94104C28.1198 5.7257 28.1198 6.47972 28.1198 7.29963C26.5367 7.29963 24.9551 7.29963 23.2969 7.29963Z" fill="black"/>
    <path d="M33.0859 7.30424C33.0859 6.49046 33.0859 5.73491 33.0859 4.93799C34.6875 4.93799 36.2552 4.93799 37.8843 4.93799C37.8843 5.69507 37.8843 6.469 37.8843 7.30424C36.3196 7.30424 34.735 7.30424 33.0859 7.30424Z" fill="black"/>
    <path d="M47.6971 4.95325C47.6971 5.75783 47.6971 6.51491 47.6971 7.31644C46.0787 7.31644 44.4925 7.31644 42.8711 7.31644C42.8711 6.51951 42.8711 5.76397 42.8711 4.95325C44.4603 4.95325 46.045 4.95325 47.6971 4.95325Z" fill="black"/>
    <path d="M45.3516 58.7488C46.8504 58.7488 48.3232 58.738 49.7944 58.7671C49.9293 58.7702 50.1622 59.0139 50.1714 59.1564C50.2128 59.8139 50.1898 60.4744 50.1898 61.1717C48.5408 61.1717 46.9745 61.1717 45.3516 61.1717C45.3516 60.384 45.3516 59.6131 45.3516 58.7488Z" fill="black"/>
    <path d="M55.043 34.3108C55.043 35.1399 55.043 35.8939 55.043 36.6939C53.4353 36.6939 51.8691 36.6939 50.2461 36.6939C50.2461 35.9016 50.2461 35.1307 50.2461 34.3108C51.8384 34.3108 53.4062 34.3108 55.043 34.3108Z" fill="black"/>
    <path d="M30.6602 34.3092C32.2632 34.3092 33.831 34.3092 35.4417 34.3092C35.4417 35.1077 35.4417 35.8632 35.4417 36.6785C33.8616 36.6785 32.2969 36.6785 30.6602 36.6785C30.6602 35.9107 30.6602 35.1215 30.6602 34.3092Z" fill="black"/>
    <path d="M20.8711 34.3092C22.4741 34.3092 24.0419 34.3092 25.6511 34.3092C25.6511 35.1077 25.6511 35.8632 25.6511 36.6801C24.0741 36.6801 22.5094 36.6801 20.8711 36.6801C20.8711 35.9337 20.8711 35.1628 20.8711 34.3092Z" fill="black"/>
    <path d="M40.4414 36.697C40.4414 35.9 40.4414 35.1445 40.4414 34.3276C42.0199 34.3276 43.5847 34.3276 45.2214 34.3276C45.2214 35.0939 45.2214 35.8832 45.2214 36.697C43.6214 36.697 42.0536 36.697 40.4414 36.697Z" fill="black"/>
    <path d="M59.7558 58.7013C59.8892 59.3649 60.0378 60.1051 60.2248 61.0338C58.4899 61.1151 56.8409 61.1917 55.1367 61.2729C55.1367 60.3748 55.1367 59.604 55.1367 58.7028C56.6861 58.7013 58.1957 58.7013 59.7558 58.7013Z" fill="black"/>
    <path d="M56.2492 7.31345C55.0247 7.31345 53.8523 7.31345 52.6523 7.31345C52.6523 6.50886 52.6523 5.75332 52.6523 4.94873C53.8462 4.94873 55.0186 4.94873 56.2492 4.94873C56.2492 5.70581 56.2492 6.47975 56.2492 7.31345Z" fill="black"/>
    <path d="M40.3555 58.8025C40.3555 59.6316 40.3555 60.3871 40.3555 61.1764C39.1616 61.1764 38.0107 61.1764 36.7969 61.1764C36.7969 60.4055 36.7969 59.6331 36.7969 58.8025C37.9555 58.8025 39.1218 58.8025 40.3555 58.8025Z" fill="black"/>
    <path d="M22.0035 58.7458C20.8679 58.7458 19.7322 58.7596 18.5966 58.7412C17.5775 58.7243 17.1652 58.3121 17.156 57.2898C17.1407 55.414 17.1407 53.5366 17.156 51.6608C17.1652 50.6355 17.5759 50.2202 18.5936 50.2079C20.0985 50.1911 21.605 50.2095 23.11 50.2018C23.7889 50.1987 24.2165 50.5145 24.4632 51.1382C25.2065 53.0171 25.9712 54.8883 26.7084 56.7703C27.1758 57.9657 26.6747 58.7197 25.4088 58.7427C24.2747 58.7626 23.1391 58.7473 22.0035 58.7458ZM19.6234 52.6324C19.6234 53.9152 19.6234 55.083 19.6234 56.2676C21.0487 56.2676 22.4265 56.2676 23.8762 56.2676C23.4226 55.132 23.0058 54.0592 22.5552 53.0002C22.4878 52.8409 22.2579 52.6554 22.097 52.6478C21.2908 52.6125 20.4832 52.6324 19.6234 52.6324Z" fill="black"/>
    <path d="M14.6844 54.5144C14.6844 55.4523 14.6967 56.3887 14.6814 57.3266C14.666 58.2906 14.2461 58.7274 13.2745 58.7411C11.771 58.7626 10.2661 58.7626 8.76266 58.7411C7.79562 58.7274 7.37723 58.3044 7.3665 57.322C7.34658 55.4232 7.34658 53.5244 7.3665 51.624C7.37723 50.6432 7.79868 50.2232 8.76725 50.211C10.2707 50.1911 11.7756 50.1911 13.2791 50.211C14.2446 50.2232 14.666 50.6616 14.6814 51.6286C14.6951 52.5895 14.6844 53.5519 14.6844 54.5144ZM9.84617 52.6677C9.84617 53.9289 9.84617 55.0998 9.84617 56.2829C10.6538 56.2829 11.4078 56.2829 12.1986 56.2829C12.1986 55.0569 12.1986 53.8661 12.1986 52.6677C11.3848 52.6677 10.6293 52.6677 9.84617 52.6677Z" fill="black"/>
</svg>
