<?xml version="1.0" standalone="no"?>
<!DOCTYPE svg PUBLIC "-//W3C//DTD SVG 20010904//EN"
 "http://www.w3.org/TR/2001/REC-SVG-20010904/DTD/svg10.dtd">
<svg version="1.0" xmlns="http://www.w3.org/2000/svg"
 width="1248.000000pt" height="1248.000000pt" viewBox="0 0 1248.000000 1248.000000"
 preserveAspectRatio="xMidYMid meet">
<metadata>
Created by potrace 1.14, written by Peter Selinger 2001-2017
</metadata>
<g transform="translate(0.000000,1248.000000) scale(0.100000,-0.100000)"
fill="#000000" stroke="none">
<path d="M4628 9035 c-2 -2 -61 -6 -132 -9 -72 -4 -153 -9 -180 -11 -28 -3
-82 -7 -121 -10 -81 -5 -172 -13 -230 -20 -39 -4 -135 -15 -185 -20 -14 -1
-50 -6 -80 -10 -30 -4 -66 -9 -80 -10 -29 -3 -101 -14 -145 -21 -16 -3 -43 -7
-58 -9 -65 -9 -115 -17 -162 -26 -47 -10 -84 -16 -130 -23 -11 -2 -33 -6 -50
-10 -63 -14 -81 -17 -115 -22 -19 -2 -44 -8 -55 -11 -25 -8 -32 -10 -75 -17
-31 -6 -115 -26 -175 -42 -11 -3 -31 -7 -45 -10 -14 -2 -36 -9 -50 -13 -24 -9
-68 -21 -101 -27 -70 -14 -436 -137 -599 -201 -162 -63 -451 -201 -512 -244
-14 -11 -29 -19 -33 -19 -7 0 -237 -149 -245 -159 -3 -3 -30 -25 -60 -47 -95
-71 -197 -166 -287 -271 -27 -30 -53 -60 -58 -66 -19 -21 -130 -181 -161 -232
-36 -58 -143 -274 -162 -325 -24 -62 -74 -205 -76 -215 -2 -5 -8 -30 -15 -55
-7 -25 -14 -52 -16 -60 -2 -8 -10 -50 -19 -94 -42 -201 -51 -457 -21 -606 3
-14 7 -36 10 -50 20 -102 44 -174 95 -277 29 -57 56 -103 60 -103 5 0 11 -9
15 -19 7 -24 137 -152 188 -186 84 -56 156 -87 282 -124 113 -32 316 -44 458
-28 56 7 58 7 69 -20 6 -16 12 -30 13 -33 13 -54 109 -152 181 -185 63 -29 82
-34 149 -39 27 -2 51 -9 53 -16 16 -46 94 -139 149 -176 111 -76 122 -77 598
-78 231 0 458 3 505 7 185 16 274 39 370 94 86 49 133 122 146 227 2 16 6 32
9 35 4 3 81 6 173 6 149 0 172 3 214 22 70 32 88 70 79 174 -2 27 -58 75 -103
89 -29 8 -97 12 -203 11 l-161 -1 1 172 0 173 155 1 c159 1 183 4 235 24 34
13 56 34 71 70 9 23 10 36 6 96 -3 30 -41 70 -87 90 -33 15 -71 18 -209 18
l-169 1 -2 60 c-4 111 -19 162 -73 242 -38 57 -124 122 -187 141 -110 33 -145
35 -615 35 -348 1 -505 -10 -639 -44 -171 -44 -267 -147 -285 -307 -4 -30 -11
-36 -49 -39 -32 -3 -70 -10 -74 -13 -2 -2 -6 -3 -10 -4 -37 -8 -107 -51 -146
-90 -39 -39 -86 -109 -93 -138 -1 -5 -2 -9 -4 -10 -2 -4 -10 -40 -12 -60 -3
-21 -4 -21 -157 -23 -184 -2 -313 44 -413 147 -51 53 -107 158 -128 243 -26
100 -20 315 13 486 18 94 115 370 138 393 5 6 9 18 9 28 0 10 3 18 8 18 4 0
13 15 21 33 14 31 110 197 121 207 3 3 16 19 28 35 91 121 190 218 301 294 87
59 248 150 265 150 5 -1 12 3 15 8 3 5 29 20 56 32 75 35 139 64 145 66 3 0
21 8 40 17 19 8 67 28 105 43 39 15 79 31 90 36 58 27 435 151 590 195 61 17
392 104 420 110 11 2 30 6 43 9 12 3 30 7 40 9 42 10 421 85 457 91 44 8 57
10 130 21 28 4 57 9 65 10 8 2 38 6 65 9 28 3 61 7 75 10 45 8 163 21 260 29
36 3 85 8 110 11 127 13 282 19 540 19 276 1 408 -5 610 -29 707 -80 1236
-331 1533 -726 31 -42 57 -81 57 -87 0 -5 4 -12 9 -14 11 -4 91 -161 91 -180
0 -8 5 -19 12 -26 26 -26 37 -25 -347 -18 -165 3 -439 8 -610 11 -170 3 -440
7 -600 10 -796 14 -1455 21 -1455 17 0 -2 23 -36 50 -77 28 -41 50 -76 50 -78
0 -2 36 -64 80 -136 43 -73 82 -142 86 -154 4 -12 18 -32 31 -44 20 -19 36
-23 96 -24 40 0 126 -2 192 -4 486 -17 1420 -31 2243 -35 l284 -2 -5 -186 c-3
-103 -7 -194 -9 -202 -58 -213 -222 -401 -442 -508 -88 -42 -275 -102 -376
-119 -48 -8 -65 -11 -90 -17 -109 -25 -245 -49 -350 -62 -19 -3 -55 -9 -80
-15 -25 -6 -52 -12 -60 -14 -8 -2 -35 -8 -60 -15 -25 -7 -56 -14 -70 -17 -23
-4 -56 -12 -250 -65 -41 -11 -95 -27 -120 -35 -25 -8 -49 -16 -55 -17 -73 -15
-348 -132 -434 -184 -28 -18 -53 -32 -56 -32 -3 0 -13 -7 -22 -14 -10 -8 -43
-33 -73 -56 -244 -180 -395 -456 -438 -800 -9 -70 -8 -441 1 -500 4 -25 9 -65
12 -90 3 -25 8 -58 12 -75 4 -16 7 -37 7 -45 1 -17 -4 -17 221 -25 579 -19
1561 -20 2700 0 866 15 1132 18 1450 19 l350 1 75 -75 c41 -41 100 -91 130
-111 56 -37 193 -113 198 -111 3 3 20 -2 42 -11 66 -28 176 -42 325 -42 136 1
191 6 315 32 88 18 78 15 205 49 55 14 105 27 110 28 6 2 44 13 85 26 95 29
277 80 310 86 14 3 34 6 45 9 11 2 20 4 20 5 0 2 34 9 70 14 17 2 41 7 55 10
90 20 154 21 785 16 198 -2 403 4 510 15 17 2 38 3 49 4 18 1 18 11 12 239 -6
278 -9 319 -31 472 -3 25 -8 59 -10 75 -2 17 -4 30 -5 30 -1 0 -4 14 -6 30
-16 101 -114 395 -136 403 -4 2 -8 8 -8 14 0 20 -108 172 -159 225 -28 28 -79
72 -113 96 -59 42 -196 117 -215 117 -4 0 -9 51 -9 113 -1 115 -11 277 -20
334 -3 17 -7 49 -9 70 -5 56 -14 124 -22 158 -3 17 -7 39 -8 50 -4 32 -45 185
-65 245 -117 346 -321 583 -630 729 -103 48 -267 104 -370 125 -14 3 -43 10
-66 15 -22 6 -60 13 -83 16 -24 3 -46 7 -50 9 -3 2 -28 7 -56 10 -27 4 -63 9
-80 11 -48 7 -146 17 -195 20 -25 2 -67 6 -95 9 -88 11 -421 24 -785 31 -824
15 -836 15 -1195 30 -278 12 -297 23 -404 236 -39 77 -93 173 -121 214 -27 41
-50 79 -50 84 0 6 -6 14 -13 18 -7 4 -20 20 -29 35 -10 14 -28 37 -40 51 -13
14 -35 40 -48 58 -46 60 -178 188 -285 275 -50 40 -207 147 -255 173 -133 70
-246 123 -325 151 -33 12 -69 26 -80 31 -12 6 -30 12 -40 14 -11 2 -20 4 -20
5 0 1 -7 3 -15 5 -8 2 -24 6 -35 9 -111 29 -222 55 -275 65 -158 27 -174 29
-345 47 -53 5 -892 14 -897 9z m3792 -1960 c91 -2 246 -7 345 -10 99 -2 286
-7 415 -11 422 -11 473 -13 630 -18 249 -10 383 -19 420 -31 8 -2 33 -7 55
-11 22 -3 96 -26 165 -51 116 -42 154 -56 220 -86 27 -12 152 -88 160 -97 3
-3 30 -24 60 -46 257 -193 347 -415 354 -877 0 -53 -2 -96 -6 -95 -3 2 -46 41
-96 88 -167 159 -281 240 -477 338 -83 42 -255 106 -255 95 0 -3 -7 0 -15 7
-8 7 -15 9 -15 6 0 -4 -8 -2 -17 3 -10 5 -36 12 -58 15 -22 4 -67 11 -99 16
-32 5 -62 7 -67 5 -4 -3 -10 -2 -12 2 -9 15 -260 6 -362 -13 -16 -3 -39 -7
-50 -9 -11 -2 -20 -4 -20 -6 0 -1 -9 -3 -20 -4 -40 -5 -177 -56 -253 -94 -157
-79 -286 -181 -397 -315 -22 -27 -45 -54 -51 -60 -5 -6 -13 -18 -17 -26 -4 -8
-16 -28 -27 -45 -11 -16 -42 -75 -69 -130 -62 -127 -101 -245 -125 -380 -3
-16 -8 -41 -11 -55 -27 -136 -21 -497 11 -652 l6 -28 -704 -1 c-387 -1 -707 0
-713 1 -5 1 -16 2 -22 2 -7 0 -150 -1 -318 -1 -168 0 -312 0 -320 0 -8 0 -152
0 -320 0 -168 0 -312 0 -320 0 -8 0 -152 0 -320 0 -168 0 -313 0 -322 0 -238
-1 -648 0 -650 3 -7 6 41 144 70 201 108 216 272 355 560 474 53 22 98 40 100
40 1 0 9 2 17 5 18 6 161 49 175 52 6 1 38 10 72 19 35 9 71 18 80 20 10 2 61
13 113 25 105 24 125 28 157 34 13 3 26 7 31 10 4 2 29 7 55 10 26 3 55 10 65
15 9 5 22 9 27 9 9 1 38 6 90 16 111 22 440 114 490 136 11 5 47 19 80 31 81
30 235 110 319 167 248 167 407 405 475 714 20 90 28 219 30 502 l1 108 258
-6 c141 -3 331 -8 422 -11z m-5351 -938 c14 -5 34 -21 45 -34 17 -23 18 -51
17 -446 -1 -232 -3 -433 -5 -447 -2 -14 -4 -29 -5 -35 -1 -10 -223 -10 -656
-1 -197 4 -211 5 -259 35 -49 31 -61 80 -59 241 0 74 2 248 3 385 2 138 7 258
12 268 22 43 52 46 477 45 242 0 414 -5 430 -11z m-1330 -517 c0 -135 -4 -232
-10 -235 -14 -9 -33 16 -45 60 -8 31 -11 320 -4 320 1 0 3 12 4 27 2 29 33 71
47 63 4 -3 8 -109 8 -235z m8456 214 c33 -4 62 -8 65 -9 116 -25 137 -32 262
-88 203 -92 469 -311 531 -439 15 -31 30 -66 32 -77 3 -12 7 -31 10 -43 9 -38
6 -141 -6 -183 -6 -22 -13 -50 -16 -62 -3 -12 -11 -28 -19 -34 -8 -6 -14 -15
-14 -20 0 -14 -105 -180 -132 -209 -13 -14 -36 -43 -53 -65 -36 -48 -163 -177
-223 -225 -24 -19 -53 -43 -65 -53 -12 -10 -37 -28 -57 -39 -19 -12 -37 -25
-40 -28 -3 -4 -34 -22 -70 -41 -36 -19 -67 -36 -70 -39 -10 -10 -81 -40 -95
-40 -8 0 -15 -5 -15 -12 0 -6 -3 -9 -6 -6 -3 4 -20 0 -39 -8 -18 -7 -47 -16
-66 -19 -18 -3 -35 -7 -38 -9 -36 -22 -301 -25 -359 -4 -12 4 -34 10 -49 12
-39 8 -123 53 -164 89 -20 18 -52 46 -71 62 -19 17 -45 46 -58 65 -14 19 -28
37 -31 40 -15 13 -68 142 -83 200 -29 120 -39 289 -24 400 4 30 10 77 14 105
21 169 123 406 227 530 107 127 317 230 512 251 27 3 50 6 51 7 5 5 103 -1
159 -9z m1539 -896 c41 -45 82 -127 109 -218 28 -92 65 -280 56 -286 -10 -6
-600 -7 -606 -1 -14 15 127 368 164 409 9 10 13 18 9 18 -4 0 -1 6 6 14 8 8
26 28 40 44 44 52 87 74 138 69 38 -4 51 -12 84 -49z"/>
<path d="M309 5288 c-34 -61 -77 -154 -81 -178 -1 -3 -8 -21 -16 -39 -7 -19
-15 -42 -17 -50 -2 -9 -8 -37 -14 -63 -20 -88 -26 -153 -25 -283 1 -116 10
-229 20 -246 2 -4 6 -24 10 -45 17 -109 119 -334 204 -450 47 -64 205 -224
222 -224 5 0 22 -8 36 -19 83 -57 382 -187 382 -164 0 3 7 0 15 -7 8 -7 15
-10 15 -7 0 3 15 1 33 -4 17 -5 55 -12 82 -15 28 -3 66 -9 85 -13 41 -8 255
-6 349 3 134 14 363 73 501 131 137 56 391 190 410 215 3 4 16 13 30 20 23 12
120 81 146 105 7 6 36 30 65 55 98 82 224 215 294 311 75 101 99 139 92 145
-2 3 -50 7 -107 9 -56 3 -106 8 -111 10 -4 3 -10 1 -14 -4 -3 -6 -11 -8 -18
-5 -18 7 -137 11 -137 4 0 -3 -25 -6 -55 -7 -68 -2 -146 -27 -210 -68 -47 -30
-200 -159 -255 -216 -129 -131 -373 -254 -565 -285 -69 -11 -270 -13 -321 -3
-110 22 -182 42 -232 65 -29 13 -54 24 -57 24 -8 0 -121 69 -141 87 -12 10
-36 29 -53 42 -33 26 -147 161 -135 161 4 0 0 8 -8 18 -20 23 -53 98 -68 150
-48 182 -21 404 74 601 l24 50 -208 115 c-114 64 -209 116 -212 116 -2 0 -15
-19 -29 -42z"/>
</g>
</svg>
