<svg width="142" height="76" viewBox="0 0 142 76" fill="none" xmlns="http://www.w3.org/2000/svg">
    <g clip-path="url(#clip0_6_6)">
        <path d="M16.6433 56.7616L16.8221 55.12L13.578 45.2351C12.8146 45.2351 12.2695 45.2351 11.5061 45.2351L8.3163 55.121H8.23432L7.38896 51.9592L4.93484 44.9435H0V45.6606L6.70755 63.7306H9.40655L12.4601 54.7755H12.5421L15.5956 63.7306L19.174 56.2126L16.6433 56.7616Z" fill="#0B0B0B"/>
        <path d="M28.6966 44.9166L28.11 44.9435L22.8738 52.9336L25.3407 52.9689L15.5956 63.7306H18.0082V63.7575H22.7801L23.898 61.4186H31.4233L32.5412 63.7575H37.3132V63.0665L28.6966 44.9166ZM25.5068 57.3261L27.634 52.4366L29.8156 57.3261H25.5068Z" fill="#0B0B0B"/>
        <path d="M32.6519 49.1949H37.3419V63.5448C38.9507 63.5448 40.5594 63.5448 42.1682 63.5448V49.1949H46.8304C46.8304 47.7598 46.8304 46.3517 46.8304 44.9435H32.6519C32.6519 46.3517 32.6519 47.7598 32.6519 49.1949Z" fill="#0B0B0B"/>
        <path d="M48.6021 49.1949H53.292V63.5448C54.9008 63.5448 56.5095 63.5448 58.1183 63.5448V49.1949H62.7806C62.7806 47.7598 62.7806 46.3517 62.7806 44.9435H48.6021C48.6021 46.3517 48.6021 47.7598 48.6021 49.1949Z" fill="#0B0B0B"/>
        <path d="M77.8982 44.7038H75.7986L67.2097 62.8537V63.5448H71.9817L73.0996 61.2059H80.6248L81.7428 63.5448H86.5147V62.8537L77.8982 44.7038ZM74.6817 57.1403L76.8356 52.2508L79.0438 57.1403H74.6817Z" fill="#0B0B0B"/>
        <path d="M98.8662 57.2731C98.8662 58.7881 97.3937 59.5322 95.9766 59.5322C94.5584 59.5322 93.0593 58.7881 93.0593 57.2731V44.9425C91.5326 44.9425 89.9238 44.9425 88.3971 44.9425V57.352C88.3971 61.4446 92.0777 63.8094 95.9766 63.8094C99.9032 63.8094 103.584 61.4446 103.584 57.352V44.9425C102.057 44.9425 100.421 44.9425 98.8672 44.9425V57.2731H98.8662Z" fill="#0B0B0B"/>
        <path d="M106.391 49.1949H111.081V63.5448C112.69 63.5448 114.299 63.5448 115.908 63.5448V49.1949H120.57C120.57 47.7598 120.57 46.3517 120.57 44.9435H106.391C106.391 46.3517 106.391 47.7598 106.391 49.1949Z" fill="#0B0B0B"/>
        <path d="M122.424 54.2701C122.424 67.158 142 67.158 142 54.2701C142 41.4082 122.424 41.4082 122.424 54.2701ZM137.101 52.7126C137.101 52.8578 136.979 52.9772 136.83 52.9772H134.271V55.3669H136.83C136.979 55.3669 137.101 55.4862 137.101 55.6315V55.6533C137.101 55.7986 136.979 55.9179 136.83 55.9179H134.271V58.3388H131.489C129.203 58.3388 127.323 56.5063 127.323 54.2784C127.323 52.0588 129.191 50.2294 131.469 50.218H134.272V52.4241H136.831C136.98 52.4241 137.102 52.5434 137.102 52.6887V52.7126H137.101Z" fill="#0B0B0B"/>
        <path d="M15.01 71.069V74.6718H14.5107V71.5006H12.1918V74.6718H11.6924V71.069H15.01Z" fill="#0B0B0B"/>
        <path d="M20.3292 71.2713C20.6103 71.4239 20.8307 71.6397 20.9893 71.9188C21.149 72.1969 21.2278 72.5144 21.2278 72.8704C21.2278 73.2315 21.148 73.5511 20.9893 73.8292C20.8296 74.1073 20.6114 74.3231 20.3324 74.4767C20.0535 74.6292 19.7383 74.706 19.387 74.706C19.0867 74.706 18.8163 74.6458 18.5757 74.5244C18.334 74.403 18.136 74.2266 17.9816 73.9931V76H17.4822V71.069H17.9603V71.7808C18.1104 71.5432 18.3084 71.3606 18.5544 71.2329C18.8003 71.1053 19.0782 71.041 19.387 71.041C19.7341 71.042 20.0481 71.1177 20.3292 71.2713ZM20.0556 74.099C20.2664 73.9828 20.4314 73.8167 20.5507 73.603C20.6699 73.3882 20.7295 73.1443 20.7295 72.8704C20.7295 72.5964 20.6699 72.3536 20.5507 72.1409C20.4314 71.9282 20.2664 71.7632 20.0556 71.6449C19.8448 71.5266 19.6106 71.4664 19.3529 71.4664C19.091 71.4664 18.8546 71.5255 18.647 71.6449C18.4383 71.7632 18.2744 71.9292 18.1551 72.1409C18.0359 72.3536 17.9763 72.5964 17.9763 72.8704C17.9763 73.1443 18.0359 73.3882 18.1551 73.603C18.2744 73.8178 18.4383 73.9828 18.647 74.099C18.8557 74.2152 19.091 74.2733 19.3529 74.2733C19.6106 74.2743 19.8448 74.2162 20.0556 74.099Z" fill="#0B0B0B"/>
        <path d="M23.9204 74.4694C23.6351 74.3117 23.4094 74.0938 23.2454 73.8157C23.0814 73.5376 22.9995 73.2221 22.9995 72.8704C22.9995 72.5186 23.0814 72.2042 23.2454 71.9251C23.4094 71.647 23.634 71.4301 23.9204 71.2744C24.2057 71.1188 24.5273 71.042 24.8829 71.042C25.2385 71.042 25.56 71.1198 25.8454 71.2744C26.1307 71.4301 26.3554 71.647 26.5161 71.9251C26.678 72.2031 26.7589 72.5186 26.7589 72.8704C26.7589 73.2221 26.678 73.5365 26.5161 73.8157C26.3543 74.0938 26.1307 74.3127 25.8454 74.4694C25.56 74.6271 25.2385 74.706 24.8829 74.706C24.5262 74.706 24.2057 74.6271 23.9204 74.4694ZM25.5888 74.099C25.7975 73.9828 25.9604 73.8167 26.0775 73.603C26.1946 73.3882 26.2531 73.1443 26.2531 72.8704C26.2531 72.5964 26.1946 72.3526 26.0775 72.1378C25.9604 71.923 25.7975 71.758 25.5888 71.6407C25.3801 71.5245 25.1448 71.4664 24.8829 71.4664C24.621 71.4664 24.3846 71.5245 24.177 71.6407C23.9683 71.7569 23.8044 71.923 23.6851 72.1378C23.5659 72.3526 23.5062 72.5964 23.5062 72.8704C23.5062 73.1443 23.5659 73.3882 23.6851 73.603C23.8044 73.8178 23.9683 73.9828 24.177 74.099C24.3857 74.2152 24.621 74.2733 24.8829 74.2733C25.1448 74.2743 25.3801 74.2162 25.5888 74.099Z" fill="#0B0B0B"/>
        <path d="M32.4646 74.2463V75.5403H31.994V74.6707H28.6839V75.5403H28.2133V74.2463H28.4241C28.6721 74.2328 28.8414 74.0543 28.9298 73.7119C29.0182 73.3695 29.0799 72.8901 29.1129 72.2737L29.1619 71.0679H31.8886V74.2453H32.4646V74.2463ZM29.4366 73.5656C29.3706 73.8966 29.2535 74.1239 29.0852 74.2474H31.3903V71.5006H29.6123L29.5697 72.3017C29.5463 72.8133 29.5015 73.2346 29.4366 73.5656Z" fill="#0B0B0B"/>
        <path d="M36.8703 71.3938C37.1279 71.6293 37.2568 71.9769 37.2568 72.4377V74.6707H36.7787V74.1093C36.6659 74.2961 36.5008 74.4424 36.2836 74.5472C36.0654 74.652 35.8067 74.705 35.5075 74.705C35.0954 74.705 34.7675 74.6095 34.5237 74.4175C34.2799 74.2256 34.1585 73.9724 34.1585 73.6569C34.1585 73.3508 34.2724 73.1049 34.4992 72.9171C34.726 72.7303 35.088 72.6359 35.5852 72.6359H36.7585V72.4169C36.7585 72.1066 36.6691 71.8701 36.4912 71.7082C36.3134 71.5463 36.0537 71.4654 35.7108 71.4654C35.4766 71.4654 35.2519 71.5027 35.0358 71.5785C34.8207 71.6542 34.6355 71.758 34.4811 71.8898L34.2565 71.5266C34.4438 71.3709 34.6685 71.2516 34.9315 71.1676C35.1934 71.0835 35.4702 71.041 35.7609 71.041C36.2432 71.042 36.6126 71.1593 36.8703 71.3938ZM36.3081 74.1332C36.5093 74.0077 36.6595 73.8261 36.7574 73.5884V72.999H35.598C34.9655 72.999 34.6493 73.2138 34.6493 73.6424C34.6493 73.852 34.7313 74.018 34.8953 74.1384C35.0592 74.2598 35.2892 74.32 35.5841 74.32C35.8652 74.3221 36.1069 74.2598 36.3081 74.1332Z" fill="#0B0B0B"/>
        <path d="M42.8783 73.0686H42.0777V74.6707H41.5783V73.0686H40.7777L39.6459 74.6707H39.0486L40.3763 72.8143L39.154 71.0679H39.6949L40.7777 72.6514H41.5783V71.069H42.0777V72.6514H42.8783L43.9675 71.069H44.5084L43.2861 72.8226L44.6138 74.6718H44.0165L42.8783 73.0686Z" fill="#0B0B0B"/>
        <path d="M48.8097 71.3938C49.0674 71.6293 49.1962 71.9769 49.1962 72.4377V74.6707H48.7181V74.1093C48.6053 74.2961 48.4403 74.4424 48.2231 74.5472C48.0048 74.652 47.7461 74.705 47.4469 74.705C47.0349 74.705 46.7069 74.6095 46.4631 74.4175C46.2193 74.2256 46.0979 73.9724 46.0979 73.6569C46.0979 73.3508 46.2119 73.1049 46.4386 72.9171C46.6654 72.7303 47.0274 72.6359 47.5246 72.6359H48.6979V72.4169C48.6979 72.1066 48.6085 71.8701 48.4307 71.7082C48.2529 71.5463 47.992 71.4654 47.6502 71.4654C47.416 71.4654 47.1914 71.5027 46.9752 71.5785C46.7602 71.6542 46.5749 71.758 46.4205 71.8898L46.1959 71.5266C46.3833 71.3709 46.6079 71.2516 46.8709 71.1676C47.1328 71.0835 47.4096 71.041 47.7003 71.041C48.1815 71.042 48.552 71.1593 48.8097 71.3938ZM48.2475 74.1332C48.4488 74.0077 48.5989 73.8261 48.6968 73.5884V72.999H47.5374C46.905 72.999 46.5888 73.2138 46.5888 73.6424C46.5888 73.852 46.6707 74.018 46.8347 74.1384C46.9987 74.2598 47.2286 74.32 47.5236 74.32C47.8046 74.3221 48.0453 74.2598 48.2475 74.1332Z" fill="#0B0B0B"/>
        <path d="M56.4787 71.2775C56.7757 71.4353 57.0099 71.6532 57.1814 71.9313C57.3528 72.2094 57.438 72.5227 57.438 72.8693C57.438 73.2159 57.3528 73.5303 57.1814 73.8105C57.0099 74.0917 56.7757 74.3117 56.4787 74.4715C56.1816 74.6313 55.8473 74.7112 55.4779 74.7112C55.1691 74.7112 54.8848 74.6645 54.6272 74.5711C54.3695 74.4777 54.1513 74.3418 53.9734 74.1633L54.2684 73.8759C54.5825 74.1633 54.9785 74.3075 55.4555 74.3075C55.7227 74.3075 55.9655 74.2525 56.1827 74.1436C56.3999 74.0346 56.5788 73.8811 56.7172 73.6849C56.8556 73.4888 56.9365 73.2699 56.9599 73.0271H54.9849V72.6576H56.9525C56.9013 72.2965 56.7374 72.0039 56.4606 71.7777C56.1837 71.5515 55.8494 71.4384 55.4555 71.4384C54.9775 71.4384 54.5814 71.5826 54.2684 71.8701L53.9734 71.5888C54.1513 71.4104 54.3695 71.2755 54.6272 71.181C54.8848 71.0876 55.168 71.041 55.4779 71.041C55.8473 71.042 56.1816 71.1198 56.4787 71.2775Z" fill="#0B0B0B"/>
        <path d="M62.54 71.069V74.6718H62.0406V71.5006H60.27L60.2211 72.391C60.1838 73.1402 60.0944 73.715 59.9538 74.1166C59.8133 74.5182 59.5631 74.7195 59.2022 74.7195C59.1042 74.7195 58.9839 74.7008 58.8434 74.6645L58.8785 74.2463C58.9626 74.265 59.0212 74.2733 59.0542 74.2733C59.2458 74.2733 59.3917 74.1872 59.4896 74.0128C59.5876 73.8395 59.6536 73.6248 59.6866 73.3695C59.7196 73.1142 59.7473 72.7759 59.7707 72.3557L59.8335 71.0679H62.54V71.069Z" fill="#0B0B0B"/>
        <path d="M68.2457 73.0208H65.1538C65.1815 73.3954 65.3295 73.6974 65.5967 73.9278C65.8639 74.1581 66.2014 74.2733 66.6082 74.2733C66.8381 74.2733 67.0489 74.2339 67.2406 74.154C67.4322 74.0741 67.5994 73.9568 67.7399 73.8012L68.021 74.1166C67.857 74.3086 67.6526 74.4549 67.4056 74.5545C67.1597 74.6552 66.8892 74.705 66.5943 74.705C66.2153 74.705 65.8788 74.6261 65.5861 74.4684C65.2933 74.3107 65.0644 74.0927 64.9004 73.8146C64.7364 73.5365 64.6544 73.2211 64.6544 72.8693C64.6544 72.5176 64.7332 72.2031 64.8897 71.924C65.0463 71.6459 65.2624 71.429 65.536 71.2734C65.8096 71.1177 66.1184 71.041 66.4602 71.041C66.8019 71.041 67.1086 71.1188 67.3811 71.2734C67.6526 71.429 67.8656 71.6449 68.021 71.9209C68.1754 72.1969 68.2531 72.5134 68.2531 72.8693L68.2457 73.0208ZM65.5648 71.7912C65.3231 72.0122 65.1868 72.3017 65.1538 72.6576H67.7751C67.7421 72.3017 67.6058 72.0132 67.3641 71.7912C67.1224 71.5702 66.8222 71.4591 66.4612 71.4591C66.1046 71.4591 65.8064 71.5702 65.5648 71.7912Z" fill="#0B0B0B"/>
        <path d="M71.7527 73.0686H70.9095V74.6707H70.4102V71.0679H70.9095V72.6504H71.7602L73.0602 71.0679H73.601L72.1467 72.8143L73.7064 74.6707H73.1166L71.7527 73.0686Z" fill="#0B0B0B"/>
        <path d="M78.0696 71.5006H76.6716V74.6718H76.1723V71.5006H74.7744V71.069H78.0696V71.5006Z" fill="#0B0B0B"/>
        <path d="M82.6935 71.2713C82.9746 71.4239 83.195 71.6397 83.3536 71.9188C83.5133 72.1969 83.5921 72.5144 83.5921 72.8704C83.5921 73.2315 83.5123 73.5511 83.3536 73.8292C83.1939 74.1073 82.9757 74.3231 82.6967 74.4767C82.4178 74.6292 82.1026 74.706 81.7513 74.706C81.451 74.706 81.1806 74.6458 80.94 74.5244C80.6983 74.403 80.5002 74.2266 80.3459 73.9931V76H79.8465V71.069H80.3246V71.7808C80.4747 71.5432 80.6727 71.3606 80.9187 71.2329C81.1646 71.1053 81.4425 71.041 81.7513 71.041C82.0984 71.042 82.4124 71.1177 82.6935 71.2713ZM82.4188 74.099C82.6296 73.9828 82.7947 73.8167 82.9139 73.603C83.0331 73.3882 83.0928 73.1443 83.0928 72.8704C83.0928 72.5964 83.0331 72.3536 82.9139 72.1409C82.7947 71.9282 82.6296 71.7632 82.4188 71.6449C82.208 71.5266 81.9738 71.4664 81.7161 71.4664C81.4542 71.4664 81.2178 71.5255 81.0102 71.6449C80.8016 71.7632 80.6376 71.9292 80.5183 72.1409C80.3991 72.3536 80.3395 72.5964 80.3395 72.8704C80.3395 73.1443 80.3991 73.3882 80.5183 73.603C80.6376 73.8178 80.8016 73.9828 81.0102 74.099C81.2189 74.2152 81.4542 74.2733 81.7161 74.2733C81.9738 74.2743 82.208 74.2162 82.4188 74.099Z" fill="#0B0B0B"/>
        <path d="M86.2837 74.4694C85.9983 74.3117 85.7726 74.0938 85.6086 73.8157C85.4447 73.5376 85.3627 73.2221 85.3627 72.8704C85.3627 72.5186 85.4447 72.2042 85.6086 71.9251C85.7726 71.647 85.9973 71.4301 86.2837 71.2744C86.569 71.1188 86.8905 71.042 87.2461 71.042C87.6017 71.042 87.9233 71.1198 88.2086 71.2744C88.494 71.4301 88.7186 71.647 88.8794 71.9251C89.0412 72.2031 89.1221 72.5186 89.1221 72.8704C89.1221 73.2221 89.0412 73.5365 88.8794 73.8157C88.7175 74.0938 88.494 74.3127 88.2086 74.4694C87.9233 74.6271 87.6017 74.706 87.2461 74.706C86.8905 74.706 86.5701 74.6271 86.2837 74.4694ZM87.9531 74.099C88.1618 73.9828 88.3247 73.8167 88.4418 73.603C88.5589 73.3882 88.6175 73.1443 88.6175 72.8704C88.6175 72.5964 88.5589 72.3526 88.4418 72.1378C88.3247 71.923 88.1618 71.758 87.9531 71.6407C87.7444 71.5245 87.5091 71.4664 87.2472 71.4664C86.9853 71.4664 86.75 71.5245 86.5413 71.6407C86.3326 71.7569 86.1687 71.923 86.0494 72.1378C85.9302 72.3526 85.8706 72.5964 85.8706 72.8704C85.8706 73.1443 85.9302 73.3882 86.0494 73.603C86.1687 73.8178 86.3326 73.9828 86.5413 74.099C86.75 74.2152 86.9853 74.2733 87.2472 74.2733C87.5091 74.2733 87.7444 74.2162 87.9531 74.099Z" fill="#0B0B0B"/>
        <path d="M95.3761 71.069V74.6718H94.9194V71.8223L93.4224 74.2328H93.1978L91.7008 71.8151V74.6707H91.244V71.0679H91.7498L93.317 73.6631L94.9119 71.0679H95.3761V71.069Z" fill="#0B0B0B"/>
        <path d="M98.4126 74.4694C98.1273 74.3117 97.9015 74.0938 97.7376 73.8157C97.5736 73.5376 97.4916 73.2221 97.4916 72.8704C97.4916 72.5186 97.5736 72.2042 97.7376 71.9251C97.9015 71.647 98.1262 71.4301 98.4126 71.2744C98.6979 71.1188 99.0195 71.042 99.3751 71.042C99.7307 71.042 100.052 71.1198 100.338 71.2744C100.623 71.4301 100.848 71.647 101.008 71.9251C101.17 72.2031 101.251 72.5186 101.251 72.8704C101.251 73.2221 101.17 73.5365 101.008 73.8157C100.846 74.0938 100.623 74.3127 100.338 74.4694C100.052 74.6271 99.7307 74.706 99.3751 74.706C99.0184 74.706 98.6979 74.6271 98.4126 74.4694ZM100.081 74.099C100.29 73.9828 100.453 73.8167 100.57 73.603C100.687 73.3882 100.745 73.1443 100.745 72.8704C100.745 72.5964 100.687 72.3526 100.57 72.1378C100.453 71.923 100.29 71.758 100.081 71.6407C99.8723 71.5245 99.637 71.4664 99.3751 71.4664C99.1132 71.4664 98.8768 71.5245 98.6692 71.6407C98.4605 71.7569 98.2965 71.923 98.1773 72.1378C98.0581 72.3526 97.9984 72.5964 97.9984 72.8704C97.9984 73.1443 98.0581 73.3882 98.1773 73.603C98.2965 73.8178 98.4605 73.9828 98.6692 74.099C98.8779 74.2152 99.1132 74.2733 99.3751 74.2733C99.637 74.2743 99.8723 74.2162 100.081 74.099Z" fill="#0B0B0B"/>
        <path d="M106.082 71.3803C106.351 71.5287 106.561 71.7362 106.711 72.0039C106.861 72.2706 106.935 72.5757 106.935 72.9181C106.935 73.2699 106.857 73.5812 106.7 73.853C106.544 74.1249 106.324 74.3356 106.043 74.486C105.762 74.6365 105.439 74.7122 105.073 74.7122C104.46 74.7122 103.984 74.5026 103.647 74.0824C103.309 73.6621 103.141 73.082 103.141 72.3432C103.141 71.5712 103.292 70.9808 103.594 70.5699C103.897 70.1589 104.368 69.8808 105.01 69.7345L106.669 69.3651L106.753 69.8103L105.194 70.16C104.664 70.2741 104.276 70.4765 104.027 70.766C103.779 71.0555 103.642 71.484 103.619 72.0506C103.769 71.7725 103.978 71.5536 104.244 71.3969C104.511 71.2391 104.818 71.1603 105.165 71.1603C105.507 71.1582 105.812 71.2319 106.082 71.3803ZM105.78 74.1332C105.984 74.017 106.143 73.8541 106.258 73.6434C106.373 73.4338 106.431 73.1962 106.431 72.9316C106.431 72.667 106.374 72.4345 106.263 72.2332C106.15 72.0319 105.992 71.8763 105.788 71.7642C105.584 71.6521 105.351 71.5961 105.088 71.5961C104.826 71.5961 104.593 71.6521 104.389 71.7642C104.185 71.8763 104.026 72.033 103.911 72.2332C103.796 72.4345 103.738 72.667 103.738 72.9316C103.738 73.1962 103.796 73.4338 103.911 73.6434C104.026 73.853 104.185 74.017 104.392 74.1332C104.598 74.2494 104.83 74.3075 105.087 74.3075C105.345 74.3086 105.576 74.2505 105.78 74.1332Z" fill="#0B0B0B"/>
        <path d="M109.058 71.069H109.558V73.9319L112.025 71.069H112.468V74.6718H111.968V71.8088L109.509 74.6718H109.06V71.069H109.058Z" fill="#0B0B0B"/>
        <path d="M117.968 71.069V74.6718H117.468V71.5006H115.698L115.649 72.391C115.612 73.1402 115.522 73.715 115.382 74.1166C115.241 74.5182 114.991 74.7195 114.63 74.7195C114.532 74.7195 114.412 74.7008 114.271 74.6645L114.306 74.2463C114.39 74.265 114.449 74.2733 114.482 74.2733C114.674 74.2733 114.819 74.1872 114.917 74.0128C115.015 73.8395 115.081 73.6248 115.114 73.3695C115.147 73.1142 115.175 72.7759 115.199 72.3557L115.261 71.0679H117.968V71.069Z" fill="#0B0B0B"/>
        <path d="M123.673 73.0208H120.582C120.609 73.3954 120.757 73.6974 121.025 73.9278C121.292 74.1581 121.629 74.2733 122.036 74.2733C122.266 74.2733 122.476 74.2339 122.668 74.154C122.86 74.0741 123.027 73.9568 123.168 73.8012L123.449 74.1166C123.285 74.3086 123.08 74.4549 122.835 74.5545C122.589 74.6552 122.318 74.705 122.023 74.705C121.644 74.705 121.308 74.6261 121.015 74.4684C120.722 74.3107 120.493 74.0927 120.33 73.8146C120.166 73.5365 120.084 73.2211 120.084 72.8693C120.084 72.5176 120.163 72.2031 120.32 71.924C120.476 71.6459 120.692 71.429 120.966 71.2734C121.24 71.1177 121.548 71.041 121.89 71.041C122.232 71.041 122.539 71.1188 122.811 71.2734C123.083 71.429 123.296 71.6449 123.451 71.9209C123.605 72.1969 123.683 72.5134 123.683 72.8693L123.673 73.0208ZM120.994 71.7912C120.752 72.0122 120.616 72.3017 120.583 72.6576H123.204C123.171 72.3017 123.034 72.0132 122.793 71.7912C122.551 71.5702 122.251 71.4591 121.89 71.4591C121.533 71.4591 121.234 71.5702 120.994 71.7912Z" fill="#0B0B0B"/>
        <path d="M125.838 71.069H126.337V73.9319L128.804 71.069H129.247V74.6717H128.748V71.8088L126.288 74.6717H125.839V71.069H125.838ZM126.759 70.3156C126.572 70.1599 126.476 69.941 126.47 69.6577H126.829C126.833 69.8362 126.9 69.9784 127.026 70.0863C127.153 70.1932 127.317 70.2471 127.518 70.2471C127.719 70.2471 127.884 70.1932 128.013 70.0863C128.142 69.9794 128.209 69.8362 128.213 69.6577H128.572C128.568 69.941 128.47 70.1599 128.28 70.3156C128.091 70.4713 127.836 70.548 127.518 70.548C127.2 70.548 126.946 70.4713 126.759 70.3156Z" fill="#0B0B0B"/>
        <path d="M104.727 21.6053C104.704 15.068 102.968 12.0691 99.2494 10.689C94.7937 9.03497 87.7135 9.69389 80.3373 9.22071C79.9445 9.19581 79.3695 8.88035 79.1917 8.4435C76.6567 2.78404 71.7698 0.266655 65.471 0.0352548C57.4018 -0.260481 43.3925 1.23169 37.2291 7.15367C31.6895 12.4759 30.7717 24.3852 40.5243 23.1245C40.7777 24.2036 41.8455 25.0016 43.022 24.8968C43.3819 25.8774 44.3423 26.582 45.4698 26.582C47.0519 26.5934 48.9971 26.6857 50.955 26.5342C52.6777 26.4004 54.0671 25.9511 54.1363 24.2815C54.9444 24.1808 57.1324 24.7152 57.0994 23.359C57.1345 22.0069 54.9519 22.534 54.1481 22.4365V20.2594C54.9562 20.1598 57.1313 20.6901 57.0994 19.337C57.1345 17.9849 54.9519 18.512 54.1481 18.4145C54.2822 16.9202 53.5305 15.5827 51.5981 15.455C49.8084 15.4156 47.6151 15.2983 45.4421 15.5432C43.9185 15.7155 42.9667 16.3505 42.8847 17.8448C41.6369 17.8074 40.5839 18.7455 40.471 19.9315C33.5953 20.8831 35.8205 11.9736 39.3425 8.78489C44.2273 4.36234 70.9574 -2.40327 76.3128 8.85753C76.3128 8.85753 76.5811 9.5123 76.579 9.5123C76.1872 9.50399 60.7247 9.2259 57.7968 9.22694C57.7531 9.22694 57.7126 9.22382 57.6733 9.21863C58.3685 10.2625 58.953 11.2784 59.5886 12.4157C65.8416 12.645 70.8775 12.645 77.1369 12.7062C77.1103 13.0736 77.1379 14.7411 77.0815 14.985C76.6971 16.6463 75.411 17.9153 73.715 18.5504C72.8589 18.871 71.873 19.0609 70.9755 19.2405C70.2877 19.3774 69.5808 19.5051 68.8738 19.5798C63.2011 20.9848 56.9301 22.0297 58.6666 31.9799C68.7908 32.3898 81.32 31.8357 88.1522 31.9031C92.4759 36.8186 97.8419 32.0079 102.609 32.3462C104.759 32.3493 106.913 32.4988 109.052 32.2342C109.133 27.3115 108.574 23.0705 104.727 21.6053ZM45.4421 18.6147C45.4336 18.3304 45.6667 18.0959 45.9585 18.0876C47.0913 18.0565 49.7509 18.0606 50.9625 18.0886C51.3032 18.0969 51.5747 18.3678 51.5758 18.6988C51.579 20.1961 51.6003 24.2213 51.5087 24.2161C43.8387 24.0044 45.6327 25.3368 45.4421 18.6147ZM42.5142 20.2729C42.512 20.1194 42.7111 19.8537 42.8677 19.8931V22.8547C42.2395 23.0269 42.5291 20.7731 42.5142 20.2729ZM101.083 25.8992C99.6338 28.6552 96.7463 30.8458 94.3359 31.0574C94.2496 31.0875 94.1528 31.1052 94.0442 31.1052C92.9827 31.1041 91.9701 30.9921 91.2419 30.2356C88.6217 28.4311 89.5533 22.7146 91.7338 21.0834C94.7788 18.8804 98.2199 20.2605 100.619 22.727C101.445 23.5779 101.631 24.8563 101.083 25.8992ZM102.261 20.689C95.786 13.4866 84.7324 17.1112 86.6233 28.3771H61.5658C63.3406 20.1578 78.8372 25.7404 80.3011 15.3056C80.2958 15.2548 80.4044 12.7301 80.3778 12.1801C80.4289 12.1905 80.9176 12.1677 81.2668 12.1801C83.1407 12.2486 92.2203 12.4831 92.2533 12.4852C93.7716 12.5921 95.3282 12.4769 96.7964 12.9127C96.9572 12.9605 98.6309 13.5789 98.8768 13.7346C101.449 15.2537 102.384 16.612 102.261 20.689ZM102.557 28.8223C103.729 24.5564 105.651 23.7118 106.412 28.8223H102.557Z" fill="#0B0B0B"/>
        <path d="M45.9574 30.357C44.5701 31.6551 42.6717 32.3556 40.7596 32.1553C37.2812 31.79 34.5684 28.7829 36.7382 24.6322C35.089 23.718 35.7534 24.0864 34.1031 23.1732C32.2356 26.0123 32.5753 30.4182 35.435 33.0238C41.5208 37.4785 49.4922 32.5859 51.7259 28.5598C48.107 28.3989 48.1357 28.318 45.9574 30.357Z" fill="#0B0B0B"/>
    </g>
    <defs>
        <clipPath id="clip0_6_6">
            <rect width="142" height="76" fill="white"/>
        </clipPath>
    </defs>
</svg>
