<svg width="142" height="76" viewBox="0 0 142 76" fill="none" xmlns="http://www.w3.org/2000/svg">
    <path d="M16.6433 56.7619L16.8221 55.1203L13.578 45.2354C12.8146 45.2354 12.2695 45.2354 11.5061 45.2354L8.3163 55.1213H8.23432L7.38896 51.9595L4.93484 44.9438H0V45.6609L6.70755 63.7309H9.40655L12.4601 54.7758H12.5421L15.5956 63.7309L19.174 56.2129L16.6433 56.7619Z" fill="white"/>
    <path d="M28.6966 44.917L28.11 44.944L22.8738 52.934L25.3407 52.9693L15.5956 63.731H18.0082V63.758H22.7801L23.898 61.4191H31.4233L32.5412 63.758H37.3132V63.0669L28.6966 44.917ZM25.5068 57.3265L27.634 52.437L29.8156 57.3265H25.5068Z" fill="white"/>
    <path d="M32.6519 49.1952H37.3419V63.5451C38.9507 63.5451 40.5594 63.5451 42.1682 63.5451V49.1952H46.8304C46.8304 47.7601 46.8304 46.352 46.8304 44.9438H32.6519C32.6519 46.352 32.6519 47.7601 32.6519 49.1952Z" fill="white"/>
    <path d="M48.6021 49.1952H53.292V63.5451C54.9008 63.5451 56.5095 63.5451 58.1183 63.5451V49.1952H62.7806C62.7806 47.7601 62.7806 46.352 62.7806 44.9438H48.6021C48.6021 46.352 48.6021 47.7601 48.6021 49.1952Z" fill="white"/>
    <path d="M77.8982 44.7041H75.7986L67.2097 62.854V63.5451H71.9817L73.0996 61.2062H80.6248L81.7428 63.5451H86.5147V62.854L77.8982 44.7041ZM74.6817 57.1406L76.8356 52.2511L79.0438 57.1406H74.6817Z" fill="white"/>
    <path d="M98.8662 57.2735C98.8662 58.7885 97.3937 59.5325 95.9766 59.5325C94.5584 59.5325 93.0593 58.7885 93.0593 57.2735V44.9429C91.5326 44.9429 89.9238 44.9429 88.3971 44.9429V57.3524C88.3971 61.4449 92.0777 63.8098 95.9766 63.8098C99.9032 63.8098 103.584 61.4449 103.584 57.3524V44.9429C102.057 44.9429 100.421 44.9429 98.8672 44.9429V57.2735H98.8662Z" fill="white"/>
    <path d="M106.391 49.1952H111.081V63.5451C112.69 63.5451 114.299 63.5451 115.908 63.5451V49.1952H120.57C120.57 47.7601 120.57 46.352 120.57 44.9438H106.391C106.391 46.352 106.391 47.7601 106.391 49.1952Z" fill="white"/>
    <path d="M122.424 54.2705C122.424 67.1583 142 67.1583 142 54.2705C142 41.4085 122.424 41.4085 122.424 54.2705ZM137.101 52.7129C137.101 52.8582 136.979 52.9775 136.83 52.9775H134.271V55.3673H136.83C136.979 55.3673 137.101 55.4866 137.101 55.6319V55.6537C137.101 55.799 136.979 55.9183 136.83 55.9183H134.271V58.3392H131.489C129.203 58.3392 127.323 56.5066 127.323 54.2788C127.323 52.0592 129.191 50.2298 131.469 50.2184H134.272V52.4244H136.831C136.98 52.4244 137.102 52.5438 137.102 52.6891V52.7129H137.101Z" fill="white"/>
    <path d="M15.01 71.0693V74.6721H14.5107V71.501H12.1918V74.6721H11.6924V71.0693H15.01Z" fill="white"/>
    <path d="M20.3292 71.2714C20.6103 71.4239 20.8307 71.6398 20.9893 71.9189C21.149 72.197 21.2278 72.5145 21.2278 72.8704C21.2278 73.2315 21.148 73.5511 20.9893 73.8292C20.8296 74.1073 20.6114 74.3232 20.3324 74.4767C20.0535 74.6293 19.7383 74.7061 19.387 74.7061C19.0867 74.7061 18.8163 74.6459 18.5757 74.5245C18.334 74.4031 18.136 74.2267 17.9816 73.9932V76H17.4822V71.069H17.9603V71.7809C18.1104 71.5432 18.3084 71.3606 18.5544 71.233C18.8003 71.1053 19.0782 71.041 19.387 71.041C19.7341 71.0421 20.0481 71.1178 20.3292 71.2714ZM20.0556 74.099C20.2664 73.9828 20.4314 73.8168 20.5507 73.603C20.6699 73.3882 20.7295 73.1444 20.7295 72.8704C20.7295 72.5965 20.6699 72.3537 20.5507 72.1409C20.4314 71.9282 20.2664 71.7632 20.0556 71.6449C19.8448 71.5266 19.6106 71.4665 19.3529 71.4665C19.091 71.4665 18.8546 71.5256 18.647 71.6449C18.4383 71.7632 18.2744 71.9293 18.1551 72.1409C18.0359 72.3537 17.9763 72.5965 17.9763 72.8704C17.9763 73.1444 18.0359 73.3882 18.1551 73.603C18.2744 73.8178 18.4383 73.9828 18.647 74.099C18.8557 74.2153 19.091 74.2734 19.3529 74.2734C19.6106 74.2744 19.8448 74.2163 20.0556 74.099Z" fill="white"/>
    <path d="M23.9204 74.4694C23.6351 74.3117 23.4094 74.0938 23.2454 73.8157C23.0814 73.5376 22.9995 73.2221 22.9995 72.8704C22.9995 72.5186 23.0814 72.2042 23.2454 71.9251C23.4094 71.647 23.634 71.4301 23.9204 71.2744C24.2057 71.1188 24.5273 71.042 24.8829 71.042C25.2385 71.042 25.56 71.1198 25.8454 71.2744C26.1307 71.4301 26.3554 71.647 26.5161 71.9251C26.678 72.2031 26.7589 72.5186 26.7589 72.8704C26.7589 73.2221 26.678 73.5365 26.5161 73.8157C26.3543 74.0938 26.1307 74.3127 25.8454 74.4694C25.56 74.6271 25.2385 74.706 24.8829 74.706C24.5262 74.706 24.2057 74.6271 23.9204 74.4694ZM25.5888 74.099C25.7975 73.9828 25.9604 73.8167 26.0775 73.603C26.1946 73.3882 26.2531 73.1443 26.2531 72.8704C26.2531 72.5964 26.1946 72.3526 26.0775 72.1378C25.9604 71.923 25.7975 71.758 25.5888 71.6407C25.3801 71.5245 25.1448 71.4664 24.8829 71.4664C24.621 71.4664 24.3846 71.5245 24.177 71.6407C23.9683 71.7569 23.8044 71.923 23.6851 72.1378C23.5659 72.3526 23.5062 72.5964 23.5062 72.8704C23.5062 73.1443 23.5659 73.3882 23.6851 73.603C23.8044 73.8178 23.9683 73.9828 24.177 74.099C24.3857 74.2152 24.621 74.2733 24.8829 74.2733C25.1448 74.2743 25.3801 74.2162 25.5888 74.099Z" fill="white"/>
    <path d="M32.4646 74.2467V75.5407H31.994V74.6711H28.6839V75.5407H28.2133V74.2467H28.4241C28.6721 74.2333 28.8414 74.0548 28.9298 73.7123C29.0182 73.3699 29.0799 72.8905 29.1129 72.2741L29.1619 71.0684H31.8886V74.2457H32.4646V74.2467ZM29.4366 73.566C29.3706 73.897 29.2535 74.1243 29.0852 74.2478H31.3903V71.5011H29.6123L29.5697 72.3022C29.5463 72.8137 29.5015 73.235 29.4366 73.566Z" fill="white"/>
    <path d="M36.8703 71.3938C37.1279 71.6294 37.2568 71.977 37.2568 72.4377V74.6708H36.7787V74.1094C36.6659 74.2962 36.5008 74.4425 36.2836 74.5473C36.0654 74.6521 35.8067 74.705 35.5075 74.705C35.0954 74.705 34.7675 74.6096 34.5237 74.4176C34.2799 74.2256 34.1585 73.9724 34.1585 73.657C34.1585 73.3509 34.2724 73.1049 34.4992 72.9171C34.726 72.7303 35.088 72.6359 35.5852 72.6359H36.7585V72.417C36.7585 72.1067 36.6691 71.8701 36.4912 71.7082C36.3134 71.5464 36.0537 71.4654 35.7108 71.4654C35.4766 71.4654 35.2519 71.5028 35.0358 71.5785C34.8207 71.6543 34.6355 71.758 34.4811 71.8898L34.2565 71.5266C34.4438 71.371 34.6685 71.2517 34.9315 71.1676C35.1934 71.0836 35.4702 71.041 35.7609 71.041C36.2432 71.0421 36.6126 71.1593 36.8703 71.3938ZM36.3081 74.1333C36.5093 74.0077 36.6595 73.8261 36.7574 73.5885V72.9991H35.598C34.9655 72.9991 34.6493 73.2139 34.6493 73.6425C34.6493 73.8521 34.7313 74.0181 34.8953 74.1385C35.0592 74.2599 35.2892 74.3201 35.5841 74.3201C35.8652 74.3221 36.1069 74.2599 36.3081 74.1333Z" fill="white"/>
    <path d="M42.8783 73.069H42.0777V74.6711H41.5783V73.069H40.7777L39.6459 74.6711H39.0486L40.3763 72.8148L39.154 71.0684H39.6949L40.7777 72.6518H41.5783V71.0694H42.0777V72.6518H42.8783L43.9675 71.0694H44.5084L43.2861 72.8231L44.6138 74.6722H44.0165L42.8783 73.069Z" fill="white"/>
    <path d="M48.8097 71.3938C49.0674 71.6294 49.1962 71.977 49.1962 72.4377V74.6708H48.7181V74.1094C48.6053 74.2962 48.4403 74.4425 48.2231 74.5473C48.0048 74.6521 47.7461 74.705 47.4469 74.705C47.0349 74.705 46.7069 74.6096 46.4631 74.4176C46.2193 74.2256 46.0979 73.9724 46.0979 73.657C46.0979 73.3509 46.2119 73.1049 46.4386 72.9171C46.6654 72.7303 47.0274 72.6359 47.5246 72.6359H48.6979V72.417C48.6979 72.1067 48.6085 71.8701 48.4307 71.7082C48.2529 71.5464 47.992 71.4654 47.6502 71.4654C47.416 71.4654 47.1914 71.5028 46.9752 71.5785C46.7602 71.6543 46.5749 71.758 46.4205 71.8898L46.1959 71.5266C46.3833 71.371 46.6079 71.2517 46.8709 71.1676C47.1328 71.0836 47.4096 71.041 47.7003 71.041C48.1815 71.0421 48.552 71.1593 48.8097 71.3938ZM48.2475 74.1333C48.4488 74.0077 48.5989 73.8261 48.6968 73.5885V72.9991H47.5374C46.905 72.9991 46.5888 73.2139 46.5888 73.6425C46.5888 73.8521 46.6707 74.0181 46.8347 74.1385C46.9987 74.2599 47.2286 74.3201 47.5236 74.3201C47.8046 74.3221 48.0453 74.2599 48.2475 74.1333Z" fill="white"/>
    <path d="M56.4787 71.2776C56.7757 71.4353 57.0099 71.6532 57.1814 71.9313C57.3528 72.2094 57.438 72.5228 57.438 72.8694C57.438 73.216 57.3528 73.5304 57.1814 73.8106C57.0099 74.0918 56.7757 74.3118 56.4787 74.4716C56.1816 74.6314 55.8473 74.7113 55.4779 74.7113C55.1691 74.7113 54.8848 74.6646 54.6272 74.5712C54.3695 74.4778 54.1513 74.3418 53.9734 74.1634L54.2684 73.8759C54.5825 74.1634 54.9785 74.3076 55.4555 74.3076C55.7227 74.3076 55.9655 74.2526 56.1827 74.1437C56.3999 74.0347 56.5788 73.8811 56.7172 73.685C56.8556 73.4889 56.9365 73.2699 56.9599 73.0271H54.9849V72.6577H56.9525C56.9013 72.2966 56.7374 72.004 56.4606 71.7778C56.1837 71.5515 55.8494 71.4384 55.4555 71.4384C54.9775 71.4384 54.5814 71.5827 54.2684 71.8701L53.9734 71.5889C54.1513 71.4104 54.3695 71.2755 54.6272 71.1811C54.8848 71.0877 55.168 71.041 55.4779 71.041C55.8473 71.0421 56.1816 71.1199 56.4787 71.2776Z" fill="white"/>
    <path d="M62.54 71.0694V74.6722H62.0406V71.5011H60.27L60.2211 72.3914C60.1838 73.1406 60.0944 73.7155 59.9538 74.117C59.8133 74.5186 59.5631 74.7199 59.2022 74.7199C59.1042 74.7199 58.9839 74.7012 58.8434 74.6649L58.8785 74.2467C58.9626 74.2654 59.0212 74.2737 59.0542 74.2737C59.2458 74.2737 59.3917 74.1876 59.4896 74.0133C59.5876 73.84 59.6536 73.6252 59.6866 73.3699C59.7196 73.1146 59.7473 72.7764 59.7707 72.3561L59.8335 71.0684H62.54V71.0694Z" fill="white"/>
    <path d="M68.2457 73.0209H65.1538C65.1815 73.3955 65.3295 73.6975 65.5967 73.9278C65.8639 74.1582 66.2014 74.2734 66.6082 74.2734C66.8381 74.2734 67.0489 74.2339 67.2406 74.154C67.4322 74.0741 67.5994 73.9569 67.7399 73.8012L68.021 74.1167C67.857 74.3086 67.6526 74.4549 67.4056 74.5546C67.1597 74.6552 66.8892 74.705 66.5943 74.705C66.2153 74.705 65.8788 74.6262 65.5861 74.4684C65.2933 74.3107 65.0644 74.0928 64.9004 73.8147C64.7364 73.5366 64.6544 73.2212 64.6544 72.8694C64.6544 72.5176 64.7332 72.2032 64.8897 71.9241C65.0463 71.646 65.2624 71.4291 65.536 71.2735C65.8096 71.1178 66.1184 71.041 66.4602 71.041C66.8019 71.041 67.1086 71.1188 67.3811 71.2735C67.6526 71.4291 67.8656 71.6449 68.021 71.921C68.1754 72.197 68.2531 72.5135 68.2531 72.8694L68.2457 73.0209ZM65.5648 71.7912C65.3231 72.0123 65.1868 72.3018 65.1538 72.6577H67.7751C67.7421 72.3018 67.6058 72.0133 67.3641 71.7912C67.1224 71.5702 66.8222 71.4592 66.4612 71.4592C66.1046 71.4592 65.8064 71.5702 65.5648 71.7912Z" fill="white"/>
    <path d="M71.7527 73.069H70.9095V74.6711H70.4102V71.0684H70.9095V72.6508H71.7602L73.0602 71.0684H73.601L72.1467 72.8148L73.7064 74.6711H73.1166L71.7527 73.069Z" fill="white"/>
    <path d="M78.0696 71.501H76.6716V74.6721H76.1723V71.501H74.7744V71.0693H78.0696V71.501Z" fill="white"/>
    <path d="M82.6935 71.2714C82.9746 71.4239 83.195 71.6398 83.3536 71.9189C83.5133 72.197 83.5921 72.5145 83.5921 72.8704C83.5921 73.2315 83.5123 73.5511 83.3536 73.8292C83.1939 74.1073 82.9757 74.3232 82.6967 74.4767C82.4178 74.6293 82.1026 74.7061 81.7513 74.7061C81.451 74.7061 81.1806 74.6459 80.94 74.5245C80.6983 74.4031 80.5002 74.2267 80.3459 73.9932V76H79.8465V71.069H80.3246V71.7809C80.4747 71.5432 80.6727 71.3606 80.9187 71.233C81.1646 71.1053 81.4425 71.041 81.7513 71.041C82.0984 71.0421 82.4124 71.1178 82.6935 71.2714ZM82.4188 74.099C82.6296 73.9828 82.7947 73.8168 82.9139 73.603C83.0331 73.3882 83.0928 73.1444 83.0928 72.8704C83.0928 72.5965 83.0331 72.3537 82.9139 72.1409C82.7947 71.9282 82.6296 71.7632 82.4188 71.6449C82.208 71.5266 81.9738 71.4665 81.7161 71.4665C81.4542 71.4665 81.2178 71.5256 81.0102 71.6449C80.8016 71.7632 80.6376 71.9293 80.5183 72.1409C80.3991 72.3537 80.3395 72.5965 80.3395 72.8704C80.3395 73.1444 80.3991 73.3882 80.5183 73.603C80.6376 73.8178 80.8016 73.9828 81.0102 74.099C81.2189 74.2153 81.4542 74.2734 81.7161 74.2734C81.9738 74.2744 82.208 74.2163 82.4188 74.099Z" fill="white"/>
    <path d="M86.2837 74.4694C85.9983 74.3117 85.7726 74.0938 85.6086 73.8157C85.4447 73.5376 85.3627 73.2221 85.3627 72.8704C85.3627 72.5186 85.4447 72.2042 85.6086 71.9251C85.7726 71.647 85.9973 71.4301 86.2837 71.2744C86.569 71.1188 86.8905 71.042 87.2461 71.042C87.6017 71.042 87.9233 71.1198 88.2086 71.2744C88.494 71.4301 88.7186 71.647 88.8794 71.9251C89.0412 72.2031 89.1221 72.5186 89.1221 72.8704C89.1221 73.2221 89.0412 73.5365 88.8794 73.8157C88.7175 74.0938 88.494 74.3127 88.2086 74.4694C87.9233 74.6271 87.6017 74.706 87.2461 74.706C86.8905 74.706 86.5701 74.6271 86.2837 74.4694ZM87.9531 74.099C88.1618 73.9828 88.3247 73.8167 88.4418 73.603C88.5589 73.3882 88.6175 73.1443 88.6175 72.8704C88.6175 72.5964 88.5589 72.3526 88.4418 72.1378C88.3247 71.923 88.1618 71.758 87.9531 71.6407C87.7444 71.5245 87.5091 71.4664 87.2472 71.4664C86.9853 71.4664 86.75 71.5245 86.5413 71.6407C86.3326 71.7569 86.1687 71.923 86.0494 72.1378C85.9302 72.3526 85.8706 72.5964 85.8706 72.8704C85.8706 73.1443 85.9302 73.3882 86.0494 73.603C86.1687 73.8178 86.3326 73.9828 86.5413 74.099C86.75 74.2152 86.9853 74.2733 87.2472 74.2733C87.5091 74.2733 87.7444 74.2162 87.9531 74.099Z" fill="white"/>
    <path d="M95.3761 71.0694V74.6722H94.9194V71.8227L93.4224 74.2333H93.1978L91.7008 71.8155V74.6711H91.244V71.0684H91.7498L93.317 73.6636L94.9119 71.0684H95.3761V71.0694Z" fill="white"/>
    <path d="M98.4126 74.4694C98.1273 74.3117 97.9015 74.0938 97.7376 73.8157C97.5736 73.5376 97.4916 73.2221 97.4916 72.8704C97.4916 72.5186 97.5736 72.2042 97.7376 71.9251C97.9015 71.647 98.1262 71.4301 98.4126 71.2744C98.6979 71.1188 99.0195 71.042 99.3751 71.042C99.7307 71.042 100.052 71.1198 100.338 71.2744C100.623 71.4301 100.848 71.647 101.008 71.9251C101.17 72.2031 101.251 72.5186 101.251 72.8704C101.251 73.2221 101.17 73.5365 101.008 73.8157C100.846 74.0938 100.623 74.3127 100.338 74.4694C100.052 74.6271 99.7307 74.706 99.3751 74.706C99.0184 74.706 98.6979 74.6271 98.4126 74.4694ZM100.081 74.099C100.29 73.9828 100.453 73.8167 100.57 73.603C100.687 73.3882 100.745 73.1443 100.745 72.8704C100.745 72.5964 100.687 72.3526 100.57 72.1378C100.453 71.923 100.29 71.758 100.081 71.6407C99.8723 71.5245 99.637 71.4664 99.3751 71.4664C99.1132 71.4664 98.8768 71.5245 98.6692 71.6407C98.4605 71.7569 98.2965 71.923 98.1773 72.1378C98.0581 72.3526 97.9984 72.5964 97.9984 72.8704C97.9984 73.1443 98.0581 73.3882 98.1773 73.603C98.2965 73.8178 98.4605 73.9828 98.6692 74.099C98.8779 74.2152 99.1132 74.2733 99.3751 74.2733C99.637 74.2743 99.8723 74.2162 100.081 74.099Z" fill="white"/>
    <path d="M106.082 71.3804C106.351 71.5288 106.561 71.7363 106.711 72.004C106.861 72.2707 106.935 72.5758 106.935 72.9182C106.935 73.27 106.857 73.5813 106.7 73.8532C106.544 74.125 106.324 74.3357 106.043 74.4861C105.762 74.6366 105.439 74.7124 105.073 74.7124C104.46 74.7124 103.984 74.5027 103.647 74.0825C103.309 73.6622 103.141 73.0822 103.141 72.3433C103.141 71.5713 103.292 70.9809 103.594 70.57C103.897 70.1591 104.368 69.881 105.01 69.7347L106.669 69.3652L106.753 69.8104L105.194 70.1601C104.664 70.2742 104.276 70.4766 104.027 70.7661C103.779 71.0556 103.642 71.4842 103.619 72.0507C103.769 71.7726 103.978 71.5537 104.244 71.397C104.511 71.2393 104.818 71.1604 105.165 71.1604C105.507 71.1583 105.812 71.232 106.082 71.3804ZM105.78 74.1333C105.984 74.0171 106.143 73.8542 106.258 73.6436C106.373 73.4339 106.431 73.1963 106.431 72.9317C106.431 72.6671 106.374 72.4347 106.263 72.2334C106.15 72.032 105.992 71.8764 105.788 71.7643C105.584 71.6523 105.351 71.5962 105.088 71.5962C104.826 71.5962 104.593 71.6523 104.389 71.7643C104.185 71.8764 104.026 72.0331 103.911 72.2334C103.796 72.4347 103.738 72.6671 103.738 72.9317C103.738 73.1963 103.796 73.4339 103.911 73.6436C104.026 73.8532 104.185 74.0171 104.392 74.1333C104.598 74.2495 104.83 74.3077 105.087 74.3077C105.345 74.3087 105.576 74.2506 105.78 74.1333Z" fill="white"/>
    <path d="M109.058 71.0693H109.558V73.9323L112.025 71.0693H112.468V74.6721H111.968V71.8092L109.509 74.6721H109.06V71.0693H109.058Z" fill="white"/>
    <path d="M117.968 71.0694V74.6722H117.468V71.5011H115.698L115.649 72.3914C115.612 73.1406 115.522 73.7155 115.382 74.117C115.241 74.5186 114.991 74.7199 114.63 74.7199C114.532 74.7199 114.412 74.7012 114.271 74.6649L114.306 74.2467C114.39 74.2654 114.449 74.2737 114.482 74.2737C114.674 74.2737 114.819 74.1876 114.917 74.0133C115.015 73.84 115.081 73.6252 115.114 73.3699C115.147 73.1146 115.175 72.7764 115.199 72.3561L115.261 71.0684H117.968V71.0694Z" fill="white"/>
    <path d="M123.673 73.0209H120.582C120.609 73.3955 120.757 73.6975 121.025 73.9278C121.292 74.1582 121.629 74.2734 122.036 74.2734C122.266 74.2734 122.476 74.2339 122.668 74.154C122.86 74.0741 123.027 73.9569 123.168 73.8012L123.449 74.1167C123.285 74.3086 123.08 74.4549 122.835 74.5546C122.589 74.6552 122.318 74.705 122.023 74.705C121.644 74.705 121.308 74.6262 121.015 74.4684C120.722 74.3107 120.493 74.0928 120.33 73.8147C120.166 73.5366 120.084 73.2212 120.084 72.8694C120.084 72.5176 120.163 72.2032 120.32 71.9241C120.476 71.646 120.692 71.4291 120.966 71.2735C121.24 71.1178 121.548 71.041 121.89 71.041C122.232 71.041 122.539 71.1188 122.811 71.2735C123.083 71.4291 123.296 71.6449 123.451 71.921C123.605 72.197 123.683 72.5135 123.683 72.8694L123.673 73.0209ZM120.994 71.7912C120.752 72.0123 120.616 72.3018 120.583 72.6577H123.204C123.171 72.3018 123.034 72.0133 122.793 71.7912C122.551 71.5702 122.251 71.4592 121.89 71.4592C121.533 71.4592 121.234 71.5702 120.994 71.7912Z" fill="white"/>
    <path d="M125.838 71.0694H126.337V73.9324L128.804 71.0694H129.247V74.6722H128.748V71.8093L126.288 74.6722H125.839V71.0694H125.838ZM126.759 70.3161C126.572 70.1604 126.476 69.9415 126.47 69.6582H126.829C126.833 69.8367 126.9 69.9788 127.026 70.0868C127.153 70.1936 127.317 70.2476 127.518 70.2476C127.719 70.2476 127.884 70.1936 128.013 70.0868C128.142 69.9799 128.209 69.8367 128.213 69.6582H128.572C128.568 69.9415 128.47 70.1604 128.28 70.3161C128.091 70.4717 127.836 70.5485 127.518 70.5485C127.2 70.5485 126.946 70.4717 126.759 70.3161Z" fill="white"/>
    <path d="M104.727 21.6054C104.704 15.068 102.968 12.0692 99.2494 10.6891C94.7937 9.03503 87.7135 9.69395 80.3373 9.22077C79.9445 9.19587 79.3695 8.88042 79.1917 8.44356C76.6567 2.7841 71.7698 0.266716 65.471 0.0353158C57.4018 -0.26042 43.3925 1.23175 37.2291 7.15373C31.6895 12.4759 30.7717 24.3853 40.5243 23.1245C40.7777 24.2037 41.8455 25.0017 43.022 24.8969C43.3819 25.8775 44.3423 26.582 45.4698 26.582C47.0519 26.5934 48.9971 26.6858 50.955 26.5343C52.6777 26.4004 54.0671 25.9511 54.1363 24.2815C54.9444 24.1809 57.1324 24.7153 57.0994 23.359C57.1345 22.0069 54.9519 22.5341 54.1481 22.4365V20.2595C54.9562 20.1599 57.1313 20.6901 57.0994 19.337C57.1345 17.9849 54.9519 18.5121 54.1481 18.4145C54.2822 16.9203 53.5305 15.5827 51.5981 15.4551C49.8084 15.4157 47.6151 15.2984 45.4421 15.5433C43.9185 15.7155 42.9667 16.3506 42.8847 17.8448C41.6369 17.8075 40.5839 18.7455 40.471 19.9316C33.5953 20.8831 35.8205 11.9737 39.3425 8.78495C44.2273 4.3624 70.9574 -2.40321 76.3128 8.85759C76.3128 8.85759 76.5811 9.51236 76.579 9.51236C76.1872 9.50406 60.7247 9.22596 57.7968 9.227C57.7531 9.227 57.7126 9.22388 57.6733 9.2187C58.3685 10.2626 58.953 11.2785 59.5886 12.4158C65.8416 12.6451 70.8775 12.6451 77.1369 12.7063C77.1103 13.0736 77.1379 14.7412 77.0815 14.985C76.6971 16.6463 75.411 17.9154 73.715 18.5505C72.8589 18.8711 71.873 19.061 70.9755 19.2405C70.2877 19.3775 69.5808 19.5051 68.8738 19.5798C63.2011 20.9848 56.9301 22.0298 58.6666 31.98C68.7908 32.3899 81.32 31.8358 88.1522 31.9032C92.4759 36.8186 97.8419 32.008 102.609 32.3463C104.759 32.3494 106.913 32.4988 109.052 32.2342C109.133 27.3115 108.574 23.0706 104.727 21.6054ZM45.4421 18.6148C45.4336 18.3305 45.6667 18.096 45.9585 18.0877C47.0913 18.0565 49.7509 18.0607 50.9625 18.0887C51.3032 18.097 51.5747 18.3678 51.5758 18.6989C51.579 20.1962 51.6003 24.2213 51.5087 24.2161C43.8387 24.0045 45.6327 25.3368 45.4421 18.6148ZM42.5142 20.273C42.512 20.1194 42.7111 19.8538 42.8677 19.8932V22.8547C42.2395 23.027 42.5291 20.7732 42.5142 20.273ZM101.083 25.8992C99.6338 28.6553 96.7463 30.8458 94.3359 31.0575C94.2496 31.0876 94.1528 31.1052 94.0442 31.1052C92.9827 31.1042 91.9701 30.9921 91.2419 30.2357C88.6217 28.4312 89.5533 22.7146 91.7338 21.0834C94.7788 18.8804 98.2199 20.2605 100.619 22.7271C101.445 23.578 101.631 24.8564 101.083 25.8992ZM102.261 20.6891C95.786 13.4866 84.7324 17.1112 86.6233 28.3772H61.5658C63.3406 20.1578 78.8372 25.7405 80.3011 15.3057C80.2958 15.2548 80.4044 12.7302 80.3778 12.1802C80.4289 12.1906 80.9176 12.1678 81.2668 12.1802C83.1407 12.2487 92.2203 12.4832 92.2533 12.4853C93.7716 12.5922 95.3282 12.477 96.7964 12.9128C96.9572 12.9605 98.6309 13.579 98.8768 13.7346C101.449 15.2538 102.384 16.6121 102.261 20.6891ZM102.557 28.8224C103.729 24.5565 105.651 23.7118 106.412 28.8224H102.557Z" fill="white"/>
    <path d="M45.9574 30.3571C44.5701 31.6553 42.6717 32.3557 40.7596 32.1554C37.2812 31.7902 34.5684 28.783 36.7382 24.6323C35.089 23.7181 35.7534 24.0865 34.1031 23.1733C32.2356 26.0124 32.5753 30.4184 35.435 33.0239C41.5208 37.4787 49.4922 32.586 51.7259 28.5599C48.107 28.399 48.1357 28.3181 45.9574 30.3571Z" fill="white"/>
</svg>
